<svg xmlns="http://www.w3.org/2000/svg" width="17.822" height="17.042" viewBox="0 0 17.822 17.042"><defs><style>.a{fill:none;stroke:#3e5053;stroke-miterlimit:10;stroke-width:1.4px;}.b{fill:#8b9698;}</style></defs><title>i_award</title><path class="a" d="M8.644.925c.146-.3.385-.3.531,0l2.1,4.247a1.285,1.285,0,0,0,.859.625l4.686.68c.326.048.4.275.164.505l-3.391,3.306a1.281,1.281,0,0,0-.332,1.015l.8,4.665c.056.325-.139.466-.43.312L9.44,14.08a1.286,1.286,0,0,0-1.062,0l-4.189,2.2c-.292.153-.485.014-.43-.312l.8-4.665a1.286,1.286,0,0,0-.329-1.012L.84,6.991C.6,6.751.677,6.524,1,6.476L5.687,5.8a1.283,1.283,0,0,0,.859-.625Z"/><path class="b" d="M8.91,6.594l.773,1.564,1.727.252L10.16,9.628l.3,1.72-1.545-.813-1.544.812.3-1.72L6.41,8.41l1.728-.252L8.91,6.594m0-2.258-.9,1.815L7.47,7.245l-1.209.176-2,.292L5.712,9.127l.874.851-.206,1.2-.342,2,1.793-.945,1.079-.567,1.08.566,1.793.941-.344-2-.2-1.2.874-.852,1.45-1.413-2-.29-1.207-.176L9.8,6.151,8.9,4.336Z"/></svg>