<svg xmlns="http://www.w3.org/2000/svg" width="18" height="18" viewBox="0 0 18 18"><defs><style>.a{fill:#f3695a;}.b{fill:#f9b4ac;}</style></defs><title>i_date</title><path class="a" d="M15.5,3.5v11H2.5V3.5h13m1-1H1.5v13h15Z"/><rect class="b" x="6.5" y="7.5" width="1" height="1"/><rect class="a" x="4.5" y="0.5" width="1" height="2"/><rect class="a" x="12.5" y="0.5" width="1" height="2"/><rect class="b" x="8.5" y="7.5" width="1" height="1"/><rect class="b" x="6.5" y="9.5" width="1" height="1"/><rect class="b" x="8.5" y="9.5" width="1" height="1"/><rect class="b" x="6.5" y="11.5" width="1" height="1"/><rect class="b" x="8.5" y="11.5" width="1" height="1"/><rect class="b" x="12.5" y="7.5" width="1" height="1"/><rect class="b" x="12.5" y="9.5" width="1" height="1"/><rect class="b" x="12.5" y="11.5" width="1" height="1"/><rect class="b" x="4.5" y="7.5" width="1" height="1"/><rect class="b" x="4.5" y="9.5" width="1" height="1"/><rect class="b" x="4.5" y="11.5" width="1" height="1"/><rect class="b" x="10.5" y="7.5" width="1" height="1"/><rect class="b" x="10.5" y="9.5" width="1" height="1"/><rect class="b" x="10.5" y="11.5" width="1" height="1"/><rect class="b" x="2.5" y="3.5" width="13" height="2"/></svg>