<?xml version="1.0" encoding="utf-8"?>
<!-- Generator: Adobe Illustrator 22.1.0, SVG Export Plug-In . SVG Version: 6.00 Build 0)  -->
<svg version="1.1" id="Layer_1" xmlns="http://www.w3.org/2000/svg" xmlns:xlink="http://www.w3.org/1999/xlink" x="0px" y="0px"
	 viewBox="0 0 18 18" style="enable-background:new 0 0 18 18;" xml:space="preserve">
<style type="text/css">
	.st0{fill:#F3695A;}
	.st1{fill:#F9B4AC;}
</style>
<title>i_location</title>
<path class="st0" d="M9,1.2c3.2,0,5.8,2.7,5.8,5.9c0,1.8-2.4,4.5-4.1,6.5C10,14.3,9.4,14.9,9,15.5c-0.4-0.6-1-1.2-1.7-1.9
	c-1.7-2-4.1-4.6-4.1-6.5C3.2,3.9,5.8,1.2,9,1.2 M9,0C5.1,0,2,3.2,2,7.1C2,11,9,16.1,9,18c0-1.9,7-7,7-10.9C16,3.2,12.9,0,9,0z"/>
<path class="st1" d="M9,5c1.1,0,2,0.9,2,2s-0.9,2-2,2S7,8.1,7,7S7.9,5,9,5 M9,4C7.3,4,6,5.3,6,7s1.3,3,3,3s3-1.3,3-3S10.7,4,9,4z"/>
</svg>
