<svg xmlns="http://www.w3.org/2000/svg" width="16" height="18" viewBox="0 0 16 18"><defs><style>.a{fill:#f3695a;}.b{fill:#f9b4ac;}</style></defs><title>i_loc</title><path class="a" d="M8,1.2a5.844,5.844,0,0,1,5.8,5.873c0,1.848-2.391,4.53-4.137,6.489C8.994,14.313,8.438,14.944,8,15.5c-.438-.553-.994-1.184-1.664-1.935C4.591,11.6,2.2,8.921,2.2,7.073A5.844,5.844,0,0,1,8,1.2M8,0A7.037,7.037,0,0,0,1,7.073C1,10.977,8,16.124,8,18c0-1.876,7-7.023,7-10.927A7.038,7.038,0,0,0,8,0Z"/><path class="b" d="M8,5A2,2,0,1,1,6,7,2,2,0,0,1,8,5M8,4a3,3,0,1,0,3,3A3,3,0,0,0,8,4Z"/></svg>