<svg xmlns="http://www.w3.org/2000/svg" width="16" height="16.002" viewBox="0 0 16 16.002"><defs><style>.a{fill:#8b9698;}.b{fill:#3e5053;}</style></defs><title>i_presentation</title><rect class="a" x="1" y="2" width="1" height="9"/><rect class="a" x="14" y="2" width="1" height="9"/><path class="b" d="M15.3,1H9.5a.5.5,0,1,0,0-1h-3a.5.5,0,0,0,0,1H.7a.7.7,0,1,0,0,1.4H15.3a.7.7,0,0,0,0-1.4Z"/><path class="b" d="M15.3,10.6H.7A.7.7,0,1,0,.7,12H7.3v.894l-3.147,1.8a.7.7,0,0,0,.694,1.216h0L8,14.1l3.152,1.8a.7.7,0,1,0,.695-1.217L8.7,12.894V12h6.6a.7.7,0,0,0,0-1.4Z"/></svg>