<svg xmlns="http://www.w3.org/2000/svg" width="18" height="18" viewBox="0 0 18 18"><defs><style>.a{fill:#8b9698;}.b{fill:#3e5053;}</style></defs><title>i_presentation</title><rect class="a" x="2" y="3.9997" width="1" height="8.9988"/><rect class="a" x="15" y="3.9997" width="1" height="8.9988"/><path class="b" d="M16.3,3H10.5a.5.5,0,1,0,0-1h-3a.5.5,0,1,0,0,1H1.7a.7.7,0,1,0,0,1.4H16.3a.7.7,0,1,0,0-1.4Z"/><path class="b" d="M16.3,12.5986H1.7a.7.7,0,1,0-.001,1.4H8.3v.8938l-3.147,1.8a.7.7,0,1,0,.694,1.2158h0L9,16.0981l3.152,1.8a.7006.7006,0,1,0,.695-1.2168L9.7,14.8923v-.8939h6.6a.7.7,0,0,0,0-1.4Z"/></svg>