<svg xmlns="http://www.w3.org/2000/svg" width="14" height="16" viewBox="0 0 14 16"><defs><style>.a{fill:#3e5053;}.b{fill:#8b9698;}</style></defs><title>i_pub</title><path class="a" d="M12.6,1.4V14.6H1.4V1.4H12.6M13,0H1A1,1,0,0,0,0,1V15a1,1,0,0,0,1,1H13a1,1,0,0,0,1-1V1A1,1,0,0,0,13,0Z"/><polyline class="b" points="10 4 4 4 4 5 10 5 10 4"/><polyline class="b" points="10 6 4 6 4 7 10 7 10 6"/><polyline class="b" points="10 8 4 8 4 9 10 9 10 8"/><polyline class="b" points="8 10 4 10 4 11 8 11 8 10"/></svg>