<svg xmlns="http://www.w3.org/2000/svg" width="48" height="102" viewBox="0 0 48 102"><defs><style>.a{fill:none;}.b,.f{fill:#9d47b2;}.c{fill:#362b3c;}.d,.f{opacity:0.5;}.e{fill:#71117e;}.f{isolation:isolate;}</style></defs><title>soc_github</title><rect class="a" width="48" height="102"/><path class="b" d="M17.979,46.559a23.344,23.344,0,1,1,12.045,0c.007-3.737.014-8.583.014-10.069a6.8,6.8,0,0,0-.874-3.518c4.286-.686,9.281-2.829,9.281-11.159a8.956,8.956,0,0,0-2.133-5.944,8.685,8.685,0,0,0-.351-5.821l-.112-.287-.292-.094a2.337,2.337,0,0,0-.682-.081c-.841,0-2.667.292-5.576,2.213a21.186,21.186,0,0,0-10.6,0c-2.912-1.921-4.739-2.213-5.581-2.213a2.34,2.34,0,0,0-.681.081l-.293.094-.113.286a8.7,8.7,0,0,0-.349,5.822,8.961,8.961,0,0,0-2.135,5.943c0,8.326,4.988,10.479,9.266,11.175A5.947,5.947,0,0,0,18.1,34.93a5.45,5.45,0,0,1-1.892.377,3.653,3.653,0,0,1-3.259-2.041,5.173,5.173,0,0,0-3.827-2.55H9.106c-.556,0-1.417.106-1.628.791-.248.8.682,1.438,1.079,1.709l.043.029.047.021a5.319,5.319,0,0,1,2.072,2.813c.359,1.2,2.043,3.563,5.714,3.562a10.179,10.179,0,0,0,1.53-.121C17.97,41.012,17.979,46.559,17.979,46.559Z"/><path class="c" d="M24,1.3a22.7,22.7,0,0,1,6.676,44.394c.006-3.586.012-7.831.012-9.205a8.01,8.01,0,0,0-.555-3.031c4.312-.873,8.962-3.373,8.962-11.646a9.592,9.592,0,0,0-2.063-6.093,9.49,9.49,0,0,0-.465-5.912l-.227-.572-.585-.188a2.967,2.967,0,0,0-.88-.112c-1.083,0-2.932.386-5.692,2.163a21.893,21.893,0,0,0-10.363,0c-2.764-1.777-4.613-2.163-5.7-2.163a2.965,2.965,0,0,0-.879.112l-.586.188-.227.571a9.5,9.5,0,0,0-.463,5.913A9.6,9.6,0,0,0,8.9,21.811c0,8.688,5.433,10.958,8.944,11.672a6.972,6.972,0,0,0-.307.952,4.511,4.511,0,0,1-1.335.222,2.987,2.987,0,0,1-2.681-1.69,5.864,5.864,0,0,0-4.359-2.9h-.1a2.073,2.073,0,0,0-2.208,1.251c-.39,1.261.907,2.146,1.333,2.437l.056.044.094.044A4.694,4.694,0,0,1,10.1,36.29c.193.561,1.577,4,6.331,4,.286,0,.581-.014.883-.039,0,1.408.007,3.495.011,5.441A22.7,22.7,0,0,1,24,1.3M24,0a24,24,0,0,0-5.369,47.39c-.006-3.224-.014-7.715-.019-8.648a10.255,10.255,0,0,1-2.178.252c-4.158,0-5.109-3.151-5.109-3.151a5.732,5.732,0,0,0-2.4-3.163c-1.892-1.291,0-1.314.142-1.314h.008A4.542,4.542,0,0,1,12.387,33.6a4.256,4.256,0,0,0,3.82,2.363,6.244,6.244,0,0,0,2.474-.565,4.61,4.61,0,0,1,1.374-2.9c-4.8-.547-9.851-2.4-9.851-10.688a8.362,8.362,0,0,1,2.225-5.8,7.779,7.779,0,0,1,.213-5.725,1.719,1.719,0,0,1,.482-.051c.783,0,2.546.291,5.465,2.268a20.519,20.519,0,0,1,10.827,0c2.917-1.977,4.678-2.268,5.46-2.268a1.719,1.719,0,0,1,.482.051,7.773,7.773,0,0,1,.215,5.725,8.345,8.345,0,0,1,2.223,5.8c0,8.309-5.057,10.136-9.874,10.67a5.171,5.171,0,0,1,1.467,4.007c0,1.6-.008,7.088-.015,10.9A24,24,0,0,0,24,0Z"/><g class="d"><path class="e" d="M24,54a24,24,0,0,0-5.369,47.39c-.006-3.224-.014-7.715-.019-8.648-6.017,1.307-7.287-2.9-7.287-2.9a5.732,5.732,0,0,0-2.4-3.163c-1.963-1.34.149-1.314.149-1.314A4.542,4.542,0,0,1,12.386,87.6c1.93,3.305,5.062,2.35,6.294,1.8a4.61,4.61,0,0,1,1.374-2.9c-4.8-.547-9.851-2.4-9.851-10.688a8.362,8.362,0,0,1,2.225-5.8,7.779,7.779,0,0,1,.213-5.725s1.814-.582,5.947,2.217a20.519,20.519,0,0,1,10.827,0c4.13-2.8,5.942-2.217,5.942-2.217a7.773,7.773,0,0,1,.215,5.725,8.345,8.345,0,0,1,2.223,5.8c0,8.309-5.057,10.136-9.874,10.67a5.171,5.171,0,0,1,1.467,4.007c0,1.6-.008,7.088-.015,10.9A24,24,0,0,0,24,54Z"/></g><path class="c" d="M24,51a24,24,0,0,0-5.369,47.39c-.006-3.224-.014-7.715-.019-8.648-6.017,1.307-7.287-2.9-7.287-2.9a5.732,5.732,0,0,0-2.4-3.163c-1.963-1.34.149-1.314.149-1.314A4.542,4.542,0,0,1,12.386,84.6c1.93,3.305,5.062,2.35,6.294,1.8a4.61,4.61,0,0,1,1.374-2.9c-4.8-.547-9.851-2.4-9.851-10.688a8.362,8.362,0,0,1,2.225-5.8,7.779,7.779,0,0,1,.213-5.725s1.814-.582,5.947,2.217a20.519,20.519,0,0,1,10.827,0c4.13-2.8,5.942-2.217,5.942-2.217a7.773,7.773,0,0,1,.215,5.725,8.345,8.345,0,0,1,2.223,5.8c0,8.309-5.057,10.136-9.874,10.67a5.171,5.171,0,0,1,1.467,4.007c0,1.6-.008,7.088-.015,10.9A24,24,0,0,0,24,51Z"/><path class="f" d="M48,27c0-.5-.021-1-.051-1.5A23.963,23.963,0,0,1,29.4,47.39h.1v2.97A24,24,0,0,0,48,27Z"/><path class="f" d="M18.6,47.39A23.982,23.982,0,0,1,.052,25.5C.021,26,0,26.5,0,27A24,24,0,0,0,18.5,50.359v-2.97h.1Z"/></svg>