<svg xmlns="http://www.w3.org/2000/svg" width="6" height="6" viewBox="0 0 6 6"><defs><style>.a{opacity:0.04;}.a,.b{isolation:isolate;}.b{opacity:0.12;}</style></defs><title>bg</title><rect class="a" y="5" width="1" height="1"/><rect class="a" y="1" width="1" height="1"/><rect class="a" x="1" y="2" width="1" height="1"/><rect class="a" x="2" y="3" width="1" height="1"/><rect class="a" x="3" y="4" width="1" height="1"/><rect class="a" x="4" y="5" width="1" height="1"/><rect class="a" x="1" width="1" height="1"/><rect class="a" x="2" y="1" width="1" height="1"/><rect class="a" x="3" y="2" width="1" height="1"/><rect class="a" x="4" y="3" width="1" height="1"/><rect class="a" x="5" y="4" width="1" height="1"/><rect class="b" width="1" height="1"/><rect class="b" x="1" y="1" width="1" height="1"/><rect class="b" x="2" y="2" width="1" height="1"/><rect class="b" x="3" y="3" width="1" height="1"/><rect class="b" x="4" y="4" width="1" height="1"/><rect class="b" x="5" y="5" width="1" height="1"/><rect class="a" x="5" width="1" height="1"/></svg>