<svg xmlns="http://www.w3.org/2000/svg" width="14" height="18" viewBox="0 0 14 18"><defs><style>.a{fill:#f3695a;}.b{fill:#f9b4ac;}</style></defs><title>i_location</title><path class="a" d="M7,1.2a5.844,5.844,0,0,1,5.8,5.873c0,1.848-2.391,4.53-4.137,6.489C7.994,14.313,7.438,14.944,7,15.5c-.438-.553-.994-1.184-1.664-1.935C3.591,11.6,1.2,8.921,1.2,7.073A5.844,5.844,0,0,1,7,1.2M7,0A7.037,7.037,0,0,0,0,7.073C0,10.977,7,16.124,7,18c0-1.876,7-7.023,7-10.927A7.038,7.038,0,0,0,7,0Z"/><path class="b" d="M7,5A2,2,0,1,1,5,7,2,2,0,0,1,7,5M7,4a3,3,0,1,0,3,3A3,3,0,0,0,7,4Z"/></svg>