<svg xmlns="http://www.w3.org/2000/svg" viewBox="0 0 48 48"><defs><style>.a{opacity:0.8;}.b{fill:#f3695a;}.c{opacity:0.4;}</style></defs><title>logo</title><g class="a"><path class="b" d="M24,1.75A22.25,22.25,0,1,1,1.75,24,22.2752,22.2752,0,0,1,24,1.75M24,0A24,24,0,1,0,48,24,24,24,0,0,0,24,0Z"/></g><g class="c"><path class="b" d="M24,3h-.2095l-.0121,0h-.0149l-.0124,0h-.0154l-.0124,0h-.0017l-.0124,0h-.002l-.0255,0H23.68l-.0123,0h-.0022l-.0125,0h0l-.0128,0h-.002l-.0126,0h-.0011l-.0124,0h-.0009l-.0128,0h-.0016l-.0129,0h-.0006l-.0125,0h-.0014l-.0124,0h-.0023l-.0255.0006h-.0014l-.0129,0h-.001l-.0263.0006h-.0014l-.013,0h0l-.0267.0006h-.0013l-.0266.0007h-.0006l-.0131,0h-.0011l-.0266.0008H23.376l-.0132,0h-.001l-.0263.0008h-.0013l-.0132,0h0l-.0272.001H23.293l-.0408.0014h-.0006l-.0269.0009h0l-.0134.0005H23.21l-.0271.001h0l-.041.0016h-.0006l-.0272.0012h0l-.0135,0h0q-.9843.0416-1.9438.172h0l-.08.011h0l-.0263.0037h0l-.0129.0018h-.0008l-.0256.0037-.0013,0-.0124.0018h-.0011l-.0123.0017-.0005,0L20.97,3.217l-.002,0-.012.0017-.0016,0-.0106.0016-.0024,0-.0114.0017-.0026,0-.0116.0017-.0014,0-.0107.0016-.0025,0-.0112.0016-.0031.0005-.0105.0015-.0017,0-.0108.0016-.0034,0-.0106.0016-.0037,0-.0083.0013-.0035.0006-.01.0015-.0042.0007-.01.0015-.0037,0-.0083.0013-.0037.0006-.01.0015-.0046.0007-.0089.0014-.0052.0008-.0068.0011-.0053.0008-.009.0014-.0055.0008-.0059.0009-.0089.0014-.0052.0008-.0061.001-.0086.0013-.0062.001-.0044.0008-.0109.0017-.0036,0-.0067.0011-.0041.0007-.0111.0017-.0033,0-.0131.0022-.0018,0-.0076.0011-.0013,0-.0142.0023-.0017,0-.0234.0038-.0009,0-.0154.0025h0l-.0583.01L20.73,4.57A19.9078,19.9078,0,0,1,24,4.3V3ZM17.1277,4.15l-.0033.0012-.0068.0023-.0048.0017-.0089.0031-.0051.0018-.007.0024-.0064.0022-.0065.0023-.0058.002-.0078.0027-.0052.0019-.0088.003-.0049.0018-.0061.0021-.0076.0026-.0056.0021-.0056.0019-.0083.0029-.0058.0021-.0052.0019-.0086.0029-.005.0018-.0092.0033-.0044.0015-.0063.0023-.0051.0018-.009.0032-.0038.0013-.01.0037-.0041.0015L16.93,4.22l-.0039.0014-.01.0037-.0035.0013-.01.0036-.0044.0015-.01.0035-.0039.0015-.0064.0023L16.874,4.24l-.01.0037-.0038.0013-.01.0038-.0035.0012-.0065.0024-.0042.0015-.01.0037-.003.0011-.0114.0042-.0029.001-.0116.0042-.0026.001-.0067.0024-.0034.0012-.0107.004-.0032.0012-.0118.0042-.0021.0008-.0216.008-.0016.0006-.0129.0047-.0017.0007L16.682,4.31l-.0016.0006-.0138.0051,0,0-.0221.0082-.0011,0-.0135.005-.0012.0005-.0366.0138-.0011,0-.0367.0138-.0007,0-.0138.0052-.0011,0c-.0425.0161-.0844.0322-.1267.0486h0l-.052.02h0l-.0371.0146h0q-.1341.0528-.2671.1072h-.0005l-.0367.0152h0l-.0513.0212-.0007,0-.036.0149-.0014.0006-.0133.0056-.001,0-.0218.0091,0,0-.0137.0058-.0013,0-.0216.009h0l-.0138.0058-.0021.0009-.0116.0049-.0026.0011-.0212.009-.0008,0-.0133.0056-.0014.0007-.0214.0091h0l-.0139.006-.001,0-.0136.0058-.0008,0-.0213.0092-.0015.0007-.0128.0054L15.7,4.704l-.0213.0091-.0008,0-.0131.0057-.0021.0009-.012.0053-.002.0008-.0208.0091-.0021.0009-.0118.0051-.0022.001-.0208.0091-.0017.0007-.0124.0054-.0017.0008-.0131.0057-.0009,0-.0214.0094-.001.0005-.0132.0058-.0011,0-.0214.01-.0005,0-.0136.006-.0013.0006-.013.0058-.0012,0-.0211.0094-.0013,0-.0129.0058-.0013.0006-.0209.0094-.0021.0009-.0118.0053L15.4,4.8361l-.0114.0051-.0026.0011-.0065.003-.0019.0008-.0117.0053-.0033.0015-.01.0047-.0029.0013-.0131.0059-.0006,0-.0065.0029-.0029.0013-.011.005-.0026.0012-.0118.0054-.0018.0008-.0205.0094-.0025.0011-.0112.0051-.0026.0013-.02.0091-.0034.0016-.01.0046-.0033.0016-.01.0047-.0033.0016-.0064.0029-.0013.0006-.0124.0057-.0026.0013-.0108.005-.0029.0013-.02.0093-.0029.0013-.0107.005-.0031.0015-.01.0047-.0032.0016-.0066.003-.0013.0006-.0123.0058-.0023.0011-.0117.0055-.002.0009-.02.01-.0031.0015-.0105.0049-.0028.0014-.0109.0051-.0028.0013-.0064.003-.0025.0012-.0108.0052-.0035.0015-.01.0047-.0033.0016-.02.0094-.0034.0016-.01.0048-.0035.0016-.01.0048-.0035.0016-.0063.0031-.0024.0012-.0109.0051-.0033.0016-.01.0048-.0034.0016-.0062.003-.0011.0006-.0122.0059-.0035.0016-.01.0049-.0031.0016-.0107.0051-.0028.0013-.0064.0031-.0025.0013-.0107.0051-.0033.0016-.01.005-.003.0014-.02.01-.0024.0012-.0112.0056-.0025.0011-.0113.0056-.0023.0011-.0065.0031-.0018.001-.012.0058-.0016.0008-.0128.0063-.0009,0-.0207.01-.0015.0008-.0128.0063-.0007,0-.0347.0172-.0015.0006-.0131.0066,0,0-.0209.01-.0012.0006-.0129.0064-.0009,0-.0349.0176-.0006,0-.0348.0175-.0011,0-.0131.0066-.0006,0q-.3062.1546-.6068.3193l.6242,1.14A19.6558,19.6558,0,0,1,17.553,5.3787L17.1277,4.15ZM11.0152,7.4944q-.3547.2794-.697.5737h0l-.01.0088h0l-.03.0264-.0008.0007-.01.0083-.0006.0006-.02.0176h0l-.01.0085-.001.0009-.0094.0082-.0011.0009-.0095.0083-.0006,0-.0091.008-.0012.001-.0088.0077-.0022.0018-.0086.0076-.0017.0015-.0082.0071-.0019.0018-.0081.007-.0019.0017-.0084.0073-.0026.0023-.0081.0072-.0023.002-.0071.0062-.003.0026-.0073.0064-.0027.0025-.0079.0069-.0029.0026-.0078.0069L10.1,8.2585l-.006.0054-.004.0035-.0064.0057-.0036.0031-.0073.0065-.0034.003-.0066.0059-.0039.0034-.0056.005-.0044.004-.0062.0054-.0039.0035-.0067.006-.0042.0037-.0047.0042-.0062.0056-.0037.0033-.0072.0064-.0037.0033L9.9972,8.35l-.004.0036L9.9863,8.36l-.0036.0032-.0072.0064-.0036.0033-.0071.0064-.0037.0033-.0049.0044-.0032.0029-.0079.0071-.0027.0024-.0086.0078-.0022.0019-.0165.015-.0017.0016-.0093.0084-.0022.0019-.0094.0086-.0015.0013-.0167.0152-.0013.0012-.01.0094-.0008.0007-.0287.0262h0q-.7191.6575-1.3756,1.38l.9619.8745a19.872,19.872,0,0,1,2.4-2.2367l-.8045-1.0212ZM6.3281,12.6505a20.9441,20.9441,0,0,0-1.64,3.0872l1.195.5119A19.7015,19.7015,0,0,1,7.4213,13.354l-1.0932-.7035ZM3.5855,19.0553q-.1037.429-.19.865v0l-.0078.04,0,.0011-.003.0154h0L3.38,20l0,.001-.0029.0154h0l-.0016.008v0l-.0029.015,0,.0019-.0027.0145v.0007l-.0044.0232,0,.0018-.0043.0231v0l-.0027.0145,0,.0024-.0025.0137,0,.0014-.0014.0075,0,.0021L3.35,20.16l-.0006.0029-.0024.0131,0,.002-.0013.007-.0006.0033L3.3429,20.2l-.0006.0034-.0022.0121-.0005.0028-.0013.0071-.0006.0029-.0021.0119-.0006.0034-.0025.0134,0,.0014-.0013.0071-.0006.0034-.002.0113-.0007.004-.0039.022,0,.0023-.0022.0129,0,.0024-.0039.0225-.0005.0029-.0022.0124-.0005.0028-.0039.0224-.0005.0028-.0021.0121,0,.0032-.0012.007v.0005l-.0025.0145-.0006.0034-.002.0118L3.3,20.4457l-.0037.0221-.0006.0033-.002.012-.0005.0028-.0037.0221-.0006.0037-.0019.0112-.0006.0039-.0011.0068-.0006.0032-.0019.0117-.0006.0037-.0019.0114-.0006.0035-.0011.0068-.0008.0047-.0016.01-.0007.0041-.0017.01-.0008.0048-.001.0064-.0007.0043-.0017.0108-.0007.0037-.0018.0116-.0005.0033-.0012.0071,0,.0031-.0018.0114-.0007.0044-.0017.0105-.0006.0042-.0011.0068L3.2579,20.7l-.0018.0112-.0005.0036-.0018.0113-.0006.0038-.001.0066-.0008.0046-.0016.0105-.0006.0039-.0017.0107-.0007.0045-.0009.0064-.0008.0048-.0015.01-.0007.0047-.0012.0079-.0011.0068-.001.0066-.0007.0046-.0015.01-.0007.0047-.0015.01-.0007.0051-.001.0065-.0007.0046-.0015.01-.0007.0045-.0012.0082-.001.0066-.001.0065-.0007.0048-.0014.01-.0007.005-.001.0062-.0012.0087-.0009.0061-.0008.0051-.0014.01-.0007.0049-.0009.0063-.0012.0084-.0009.0065-.0008.0051-.0012.0088L3.2127,21l-.0008.0059-.0013.0088L3.21,21.02l-.0008.0055-.0012.0086-.0009.0061-.0008.0055-.0013.0093-.0007.0053-.001.0066-.001.0075-.0009.0066L3.2,21.0871l-.0013.0091-.0007.0056-.0009.006-.001.0073-.001.0073-.0007.0052-.0013.0095-.0007.0052-.0009.0066-.0009.0068-.001.0074-.0008.0057-.0011.0086-.0008.0059-.0009.0062-.0008.0065-.0011.0082-.0007.005-.0013.01-.0006.0047-.0009.0072-.0007.0053-.0012.009-.0007.005-.0013.01,0,.0038-.001.008-.0006.0042-.0013.01-.0005.0043-.0014.01,0,.0038-.0011.0087-.0005.0034-.0014.0107,0,.0038-.0014.0109,0,.0028-.0011.0092,0,.0035-.0013.0108-.0005.0036-.0013.011,0,.0026-.0012.01,0,.0032-.0014.0108,0,.0038-.0013.0111,0,.0018-.0013.01,0,.0032-.0013.0113,0,.0027-.0014.0118,0,.0016-.0013.0109,0,.0023-.0014.0119,0,.0023-.0014.0122v0l-.0014.0118,0,.0025-.0014.0118,0,.0022L3.14,21.56l0,.0018-.0014.0122,0,.0018-.0029.0254,0,.0014-.0014.0129v.0007l-.003.0265v.0007l-.0045.0407h0q-.045.4107-.0742.826l1.2968.0909a19.74,19.74,0,0,1,.5-3.241l-1.2637-.305Zm.8033,6.8287-1.2942.1227q.0546.576.14,1.1425v0l.006.04,0,.0014.0023.0148v.0009l.0036.023,0,.0027.002.0133,0,.0019.0036.0228,0,.0027.0021.013,0,.0023.0012.0074,0,.0022.0021.0129,0,.0032.0018.0114.0006.004.0011.0067.0006.0038.0018.0111.0007.0043.0015.01.0008.005.0011.0064.0011.0072.0012.007.001.0061.0012.0078.0011.0066.0009.0056.0015.0092.0009.0053.001.0062.001.0062.0014.0083.0008.005.0016.01.0008.0048.0012.007.001.0059.0014.0084.0008.0048.0016.01.0008.0047.0012.0072.0008.0045.0016.01.0008.0048.0017.01.0007.0043.0014.0079.0006.0037.0018.01.0007.004.0018.0105.0006.0035.0015.009,0,.0028.0019.0109.0006.0035.0019.0108.0006.0033.0015.0089.0006.0032.0019.0109.0006.0033L3.32,27.67l0,.0028.0018.01,0,.0019.002.0114.0006.003.002.0115,0,.0015.002.0114,0,.0015.0021.0117,0,.0027.0021.0115,0,.0018.002.0113,0,.0013.0022.0121,0,.0019.0022.0123v.0007l.0023.0123v.0009l.0023.0125,0,.0013.0023.0127v0l.0048.026,0,.0013.0074.0394v0l.0075.04v0q.1451.7641.3445,1.5079l1.2557-.3363a19.7013,19.7013,0,0,1-.58-3.2271ZM6.08,32.1953l-1.1819.5413.0006.0013.0043.0094.0014.003.0046.01.0013.0028.0047.01.0012.0027.0039.0084.0013.003.0045.01.0016.0036.0044.01.0017.0035.0038.0081.0021.0046.0034.0074.002.0042.0041.009.002.0041.0041.0091.0019.0039.0033.0071.002.0043.0038.0081.0021.0046.004.0085.0022.0046.0031.0067.0031.0066.0027.0056.0028.0061.0033.0071.0025.0052.0035.0075.0028.0058L5,32.9569l.0037.0079.0025.0051.0025.0054.0038.0079.0024.0052.003.0063.0033.0069.0024.0051.0039.0081.0023.005.0028.0057.0026.0054.0038.0081.0019.004.0043.009.002.0041.0044.0091.002.0042.0029.006.0017.0036.0048.01.0016.0035.0046.0095.0019.0039.01.02.0006.0014.0061.0125.0007.0015.0065.0134,0,0,.01.0209.0006.0013.0063.0128,0,.0012.0172.0351,0,0a20.9627,20.9627,0,0,0,1.4839,2.5557l1.0755-.73a19.7184,19.7184,0,0,1-1.61-2.8569Zm3.6712,5.4088-.94.8979q.6109.64,1.274,1.2268l0,0,.011.01.0008.0006.0172.0152.0012.0011.01.0087.0019.0016.0094.0083.002.0017.0165.0146.0027.0024.0079.0068.0033.003.0075.0065.0037.0032.0046.0041.0049.0042.0062.0055.004.0035.0064.0055.0047.0041.0043.0038.0066.0058.0041.0035.0065.0057.0043.0037.0053.0045.0044.0039.0063.0055.0033.0028.0077.0067.0031.0026.0072.0064.0036.003.0062.0053.0032.0028.0074.0064.003.0026.008.0069.0027.0023.0077.0067.0028.0023.0072.0062.002.0017.0084.0073.0025.0021.0085.0072.002.0017.0086.0074.0015.0013.0082.007.0019.0017.0087.0074.0021.0018.0088.0074.0017.0015.009.0077,0,0,.0095.0081.0014.0011.0092.0078.0015.0013.0094.0079.0008.0007.02.017,0,0,.01.0085,0,0q.47.3967.9634.7661l.7791-1.0407a19.8753,19.8753,0,0,1-2.4545-2.177Zm5.2342,3.9175-.5958,1.1555a20.9052,20.9052,0,0,0,2.2617,1.0013l.0006,0,.0141.0053.0009,0,.0218.0081.0017.0007.0125.0046.0024.0009.0115.0043.003.0011.0066.0024.0029.001.0109.0041.0039.0014.0093.0034.0049.0018.0057.0022.0083.003.0053.002.006.0021.0076.0028.0058.0021.005.0019.0089.0032.0048.0017.0092.0034.004.0014.0074.0027.0037.0014.01.0034.004.0015.01.0035.0036.0013.0094.0034.0026.001.01.0036.0026.0009.0109.0039.0023.0008.0113.0041.0012,0,.0115.004.0008,0,.0117.0041.0019.0007.0118.0042.0007,0,.0251.0089,0,0,.0125.0044.0007,0q.3105.11.6255.21l.3945-1.2387a19.6242,19.6242,0,0,1-3.0291-1.2531ZM21.21,43.5042l-.1823,1.2872q.4629.0655.9322.1108h.0008l.0233.0022.0018,0,.0236.0022H22.01l.0073.0007.0023,0,.0219.002.0026,0,.0067.0006.0026,0,.0127.0012.0022,0,.0067.0006.0029,0,.0066.0006h.0008l.0133.0012.004,0,.0058,0,.0042,0,.01.0008.0042,0,.006.0006.0039,0,.0059,0,.0053,0,.0081.0008.0052,0,.005.0005.0055,0,.0056,0,.0081.0007.0043,0,.0058.0005.0047,0,.0078.0006.0049,0,.0065.0006.0046,0,.0062,0,.0039,0,.0094.0008.0037,0,.0068.0006.0039,0,.0082.0006.0039,0,.0079.0007.0035,0,.0074.0006.0031,0,.01.0008.0034,0,.0069.0006.0038,0,.0092.0007h.0009l.01.0008.0029,0,.0083.0006.0023,0,.01.0008.0024,0,.0083.0006.0029,0,.01.0008h0l.0106.0008.0025,0,.0082.0006.0028,0,.01.0007h.0012l.0093.0007.0027,0,.0093.0007h.0012l.0105.0007.0025,0,.0083.0006.0026,0,.01.0008h.0009l.01.0008H22.49l.0085.0006.0021,0,.0105.0007.002,0,.0088.0006h.0024l.0106.0007h0l.01.0007.0027,0,.0088.0006h.0018l.0105.0007h.002l.0089.0007h.0024l.0213.0014.0021,0,.01.0006h.001l.0114.0008h0l.0107.0006.0016,0,.022.0014h.0015l.01.0006h.0013l.0111.0006h0l.0105.0006h.002l.0218.0014h.0014l.01.0006h.0015l.0218.0013h.0019l.0221.0013H22.78l.0106.0007h.0009l.0224.0012h.0011l.011.0006h0l.0116.0007h0l.011,0h.001l.0222.0012h.0017l.0338.0017h0l.023.0012h0l.0112,0h0l.0224.0011h.0015l.0224.0011h.0006l.0109,0h.0006l.0227.001h.0011l.0226.001h0l.0105,0H23.06l.0221.001h.0016l.0109.0005h0l.0114,0h.0009l.01.0005h.0011l.0224.0009h.0014l.01,0h.0011l.0113.0005h0l.0108,0h.0013l.0222.0008h.0015l.0106.0005h0l.0222.0008h.002l.01,0h.0005l.0111,0h.0016l.0094,0h.0019l.0109,0h.0007l.01,0h.0023l.01,0h0l.0112,0h.0014l.01,0h.0015l.022.0007h.0019l.01,0h.0011l.0111,0h.0012l.01,0h.0018l.0218.0006h.0023l.01,0h.0011l.0109,0h.0018l.0095,0h.0018l.022.0005h.0017l.01,0h.0013l.0112,0h.0006l.01,0h.002l.0218,0H23.53l.0089,0h.002l.0109,0h.0009l.01,0h.0025l.0095,0h.0012l.0107,0h.0022l.0089,0H23.6l.0106,0h.0242l.0105,0h.0026l.0085,0h.0374l.0105,0h.0138l.021,0h.0381l.0089,0h.3775l.0472,0h.1373c.0571-.0009.1134-.0021.17-.0035l-.0315-1.3Q24.2442,43.7,24,43.7a19.9651,19.9651,0,0,1-2.79-.1958Zm9.6942-1.0474a19.6182,19.6182,0,0,1-3.1555.8873l.2458,1.2765a20.8387,20.8387,0,0,0,3.3654-.9463l-.4557-1.2175Zm5.6545-3.2777a19.8057,19.8057,0,0,1-2.6908,1.8756l.6521,1.1246q.2253-.1307.447-.2666l.0007-.0005.0111-.0068.0007,0,.0222-.0137.0011-.0007.01-.0063.0019-.0012.01-.0063.0014-.0009.01-.0059.0016-.001.01-.006.0025-.0015.0092-.0058.0032-.0019.0091-.0057.0028-.0017.0073-.0045.0035-.0022.0085-.0053.0036-.0023.0086-.0054.0036-.0022.0072-.0045.0048-.003.0061-.0038.0044-.0028.0076-.0047.005-.0031.0055-.0035.0069-.0044.0044-.0028.0084-.0052.0035-.0022.0107-.0067.0018-.0012.0059-.0037.0026-.0017.01-.0064.0025-.0016.0109-.0069.0015-.0009.0192-.0122.0016-.001.0116-.0073.0012-.0008.0793-.0508h0A21.0483,21.0483,0,0,0,37.3882,40.18l-.8293-1.0011Zm4.2781-4.9448a19.8114,19.8114,0,0,1-1.9333,2.65l.9831.8507a21.1054,21.1054,0,0,0,1.6672-2.2035l0,0,.0084-.0128,0,0,.0215-.0329h0l.0086-.013v0l.0128-.02.0006-.0008.0075-.0116.0016-.0024.0064-.01.0019-.0028.0069-.0108.0012-.0017.0038-.0059.002-.0031.006-.0092.002-.0032.0061-.0094.0019-.003.0038-.0057.0035-.0056.0044-.0067.0025-.004.0053-.0083.0026-.004.0051-.0079.0029-.0044.0034-.0053.0047-.0073.003-.0047.0032-.005.0045-.0072.0032-.0048.0029-.0047.0048-.0075.0033-.005.0039-.0062.0036-.0057.0036-.0057.0037-.0058.004-.0062.0026-.0042.0052-.0081.0026-.0042.005-.0078.0024-.0038.0044-.007.0019-.0029.0056-.0089.0021-.0034.0055-.0087.0022-.0034L41.78,35.18l.0022-.0035.0048-.0077.0018-.0028.0059-.0094.0016-.0026.0059-.0094.0016-.0024.0061-.01,0,0,.0064-.01.0011-.0018.0064-.01.001-.0016.0065-.01.0007-.0011.0136-.0218.0008-.0013.0066-.0107.0006-.001.0211-.034,0-.0006.007-.0113v0l.0645-.105-1.11-.6763Zm2.422-6.0681a19.5993,19.5993,0,0,1-.9558,3.1354l1.2073.482q.0778-.1948.1519-.3918v0l.0093-.0245,0-.0011.0044-.0118,0-.0012.0089-.0238.0005-.0014.0043-.0114.0006-.0018.0042-.0113.0006-.0016.0039-.01.0006-.0019.004-.0106.0011-.0031.0038-.01.001-.0028.0034-.009.0009-.0025.0036-.01.0014-.0038.0036-.01.0013-.0037.0031-.0085.0015-.0041.003-.0082.0015-.0041.0034-.0092.0017-.0047.0023-.0065.0027-.0073.0021-.0057.0018-.0049.0031-.0085.002-.0056.0021-.0059.0029-.0079.0017-.0048.0031-.0087.0019-.0051.0021-.0059.002-.0057.003-.0082.0015-.0042.0038-.0105.001-.003.0076-.0211.0008-.0024.0043-.0121.0009-.0023.0077-.0218,0-.0006.005-.0141,0-.001q.1312-.3713.2487-.7484v0l.0118-.0381,0-.001.0045-.0144v-.0005l.0118-.0382v0l.0114-.0376.0006-.0019.0043-.0141,0,0,.0068-.0225,0-.0015.004-.0133.0006-.0018.0065-.0217.0008-.0028.0035-.0116.001-.0033.004-.0134,0-.0009.002-.0067.0012-.0042.0029-.01.0013-.0044.0028-.0095.0014-.0047.0019-.0063.0014-.0046.0028-.01.0013-.0044.0027-.009.0015-.0053.0018-.006.0019-.0065.0023-.0077.0014-.0049.0024-.0084.0018-.0059.0016-.0055.0025-.0086.0015-.0053.002-.0067.0019-.0067.002-.0068.0014-.0049.0027-.0093.0013-.0047.0022-.0074.0018-.0063.002-.007.0012-.0042.0028-.01.0013-.0044.0028-.01.001-.0038.0023-.0079.0011-.0038.0028-.01.0011-.0038.0029-.01.0009-.0031.0027-.0093.0007-.0025.0029-.01.0011-.0038.0029-.01.0009-.0034.0028-.01.0007-.0025.0029-.0105.0007-.0024.0031-.011.0008-.0029.0031-.0112,0-.0011.0031-.0113,0-.0016.0033-.0118,0-.0019.0033-.0118,0-.0016.0031-.011,0-.0015.0032-.0118.0006-.0019.0032-.0118,0-.0014.0068-.0247,0-.0015.0033-.0122,0-.001L44.27,29.51l0-.0006.0035-.0129v0l.0107-.0393v-.0005q.135-.5035.2456-1.0168l-1.2709-.2735ZM44.85,21.4783l-1.2908.1545A20.0012,20.0012,0,0,1,43.7,24q0,.4592-.0208.9133l1.2987.0591,0-.0066v-.0011l0-.0055v-.0027l0-.0048,0-.0032,0-.0043,0-.0044v-.0032l0-.0052v-.0027l0-.0071v-.0005q.016-.3741.0191-.7513h0l0-.0336V24h0v-.33l0-.0093h0v-.05l0-.0093v-.0121l0-.0069v-.003l0-.0064V23.57l0-.0063V23.56l0-.0091v0l0-.0094V23.51l0-.0071v-.0023l0-.01h0l0-.0092V23.48l0-.0073v-.012l0-.0073V23.451l0-.009v0l0-.01V23.43l0-.0077V23.41l0-.0066v-.003l0-.0073v-.0018l-.0006-.0191V23.37l0-.0069V23.36l0-.0065v-.0029l0-.0068v-.0025l0-.0082v-.0012l-.0006-.0192v-.0017l0-.0075v-.0027l0-.0069v-.0025l0-.0073v-.0022l-.0007-.0191v-.0005l0-.0091V23.252l0-.0076v-.0026l0-.0072v-.0021l0-.0086v-.0008l-.0007-.0192v-.0015l0-.0081v-.0018l0-.0078v-.0019l0-.0079v-.0016l-.0011-.0286v-.0019l0-.0077v-.0022l0-.0073v-.0022l0-.0082v-.0011l-.0009-.0194v0l0-.0089v-.002l0-.0073v-.0025l0-.0072v-.0022l-.0013-.0285v-.0017l0-.0076v-.0024l0-.0075v-.0018l0-.0079v-.0016l-.0013-.0287v-.0018l0-.0076v-.0022l0-.0078v-.0014l-.0005-.0088V22.946l-.0015-.0291v-.0008l0-.0086v-.0016l0-.0083v-.0012l-.0005-.0094h0l-.001-.02v-.001l0-.0086v-.0013l0-.0082v-.0017l0-.0085v-.0008l-.0016-.0288v-.0018l-.0005-.0077v-.002l0-.0075v-.002l-.0005-.0087v-.0006l-.0012-.0192v-.0017l0-.0076,0-.0026,0-.0067v-.0028l0-.0067,0-.0027-.0005-.0083v-.0008L44.96,22.7V22.698l0-.007,0-.0028,0-.007,0-.0022-.0005-.0077V22.67l-.0012-.0191V22.65l-.0006-.0085v-.002l-.0005-.0073v-.0025l-.0005-.0072V22.62l0-.0076v-.002l-.0013-.0185v-.0026l-.0005-.0068,0-.0031,0-.0057,0-.004,0-.0054,0-.0037,0-.0066,0-.0025-.0006-.0092v-.0017l-.0005-.0073,0-.0034,0-.0061,0-.0031,0-.0061,0-.0035,0-.006,0-.0032-.0005-.0065,0-.0033-.0006-.0084,0-.003,0-.006,0-.0041,0-.0051,0-.004,0-.0052,0-.0041,0-.0053,0-.0038,0-.0062-.0005-.0066,0-.005,0-.0046,0-.0043,0-.0051,0-.004,0-.0048,0-.0043,0-.0049,0-.0046,0-.0043,0-.0042-.0008-.01,0-.0033,0-.0056,0-.0033,0-.0056,0-.0035-.0005-.0055,0-.0029-.0005-.0063v-.0006l-.0013-.0157v0l0-.0067,0-.0021,0-.0065,0-.0022-.0005-.0067,0-.0019-.0005-.0069v-.0011l-.0026-.0318v-.0009l-.0006-.0074v-.0012l-.0007-.0077v0l-.0042-.05h0c-.02-.2368-.0444-.4718-.0725-.7063Zm-1.97-6.6831-1.1681.5706a19.6086,19.6086,0,0,1,1.187,3.0556l1.247-.3675-.0006-.002-.0031-.0106-.0007-.0022-.003-.01-.0006-.0021-.0034-.0114-.0006-.0023-.0035-.0116,0-.0014-.0036-.012v0l-.0037-.0122,0-.0015-.0036-.0121,0-.0012-.0076-.0253,0-.0006-.0037-.0124,0-.0012a20.8523,20.8523,0,0,0-1.2263-3.126ZM38.8265,9.128l-.9178.9206a19.8765,19.8765,0,0,1,2.1236,2.5007l1.0573-.7565q-.4582-.64-.9624-1.2441l0,0-.0085-.01,0,0-.0169-.02-.0008-.001-.008-.01-.0011-.0013-.0079-.0094-.0008-.001-.0078-.0092-.0006-.0008-.0078-.0092-.0015-.0018-.0075-.0089-.0016-.0019-.0075-.0089-.0014-.0016-.0067-.008-.0017-.0019-.007-.0084-.0024-.0028-.0067-.0079-.0026-.0031-.0056-.0066-.0035-.004-.0051-.006-.0029-.0034-.0062-.0073-.0033-.0039-.0061-.0071-.0032-.0038-.0043-.0051-.0052-.006-.0039-.0046-.0037-.0043-.0058-.0068-.0037-.0044-.0038-.0044-.006-.007-.0027-.0031-.007-.0082-.0025-.0029-.014-.0164-.0025-.0028-.0075-.0087-.0019-.0022-.0082-.0094L39.9,10.2808l-.0146-.017-.0015-.0017-.0086-.01-.0011-.0013-.0253-.0291,0,0q-.4917-.5652-1.0218-1.0936Zm-5.68-4.0366-.5669,1.17a19.75,19.75,0,0,1,2.8215,1.6714l.7533-1.0595c-.1238-.0881-.248-.1743-.3738-.26l0,0-.012-.0081-.0014-.001-.0188-.0128L35.7467,6.59l-.01-.0068-.0029-.002-.01-.0064-.0028-.0019-.0057-.0039-.0017-.0011-.0107-.0072L35.7,6.5586l-.0085-.0057L35.6874,6.55l-.0074-.005-.0048-.0032L35.67,6.5386l-.0071-.0047-.005-.0033-.005-.0034-.0062-.0041-.0058-.0039-.004-.0027-.008-.0053-.0042-.0028-.0069-.0046-.0049-.0033-.0062-.004-.0043-.0029-.0074-.005-.0037-.0024-.0085-.0056L35.58,6.4785l-.008-.0054-.0034-.0022-.0077-.0051-.0025-.0016-.009-.006-.003-.002L35.5372,6.45l-.0024-.0016-.0087-.0058-.0022-.0014-.0088-.0058-.0026-.0017-.0092-.006-.0026-.0018-.01-.0062L35.49,6.419,35.48,6.413l-.0015-.0011-.01-.0063-.0024-.0015-.01-.0062-.0021-.0014-.01-.0064-.0011-.0008-.0092-.0059-.0022-.0014-.01-.0065-.0017-.0011-.01-.0065-.0014-.001-.0211-.0136-.0015-.0009-.01-.0067-.0012-.0008L35.365,6.338l0,0-.0109-.0071,0,0-.0108-.0069-.0011-.0006-.0108-.007,0,0-.0228-.0146h0l-.0111-.0072-.0008,0-.0111-.0071h0l-.0226-.0144-.0006,0L35.25,6.2646l-.001-.0006-.034-.0215h0l-.0113-.0072,0,0-.0227-.0144h0l-.0114-.0071,0,0-.0806-.05,0,0-.0459-.0285-.0007-.0005-.0343-.0212h0l-.0116-.0072h0l-.0232-.0142h0l-.0113-.0071-.0005,0-.0114-.0069h0l-.0232-.0142,0,0-.0114-.0069h0l-.0345-.021-.0007,0-.0113-.0068h0l-.0232-.0141h0l-.0112-.0068-.001-.0006L34.82,5.9985h0l-.0228-.0137-.0008,0-.0108-.0065-.0013-.0007-.011-.0067h0l-.0111-.0067-.0008,0-.0106-.0064-.0016-.0009-.01-.0062-.0016-.001-.0215-.0128-.0016-.0009-.01-.006-.0023-.0013-.01-.0059L34.69,5.9206l-.01-.0058-.0009,0-.01-.0062-.002-.0012-.01-.0059L34.6548,5.9l-.01-.0061-.0013-.0007-.01-.0057-.0015-.0009-.01-.006L34.62,5.8792l-.01-.006-.0022-.0012-.01-.0057-.0018-.0011L34.5866,5.86l-.0021-.0012-.01-.0058-.0024-.0014-.01-.0058L34.56,5.8444l-.0091-.0053-.0021-.0011L34.54,5.8324l-.0029-.0017-.0093-.0054-.003-.0018-.01-.0054-.0024-.0014-.008-.0047L34.5015,5.81l-.0091-.0052-.0032-.0019L34.48,5.7978l-.003-.0018-.0085-.0049-.003-.0017-.0082-.0047-.0032-.0019-.0091-.0052-.0035-.002-.0088-.0051-.0036-.0021-.007-.0039-.0045-.0026L34.41,5.7577l-.0044-.0025L34.3975,5.75l-.0041-.0023-.0071-.004L34.381,5.741l-.0061-.0035L34.37,5.735l-.0078-.0044-.0048-.0028L34.35,5.7234l-.0045-.0026L34.34,5.7175l-.0069-.0039-.0051-.0029-.0051-.0029-.0074-.0041L34.31,5.7l-.0042-.0023-.0086-.0048-.0041-.0023-.0078-.0045L34.28,5.6837l-.0052-.0029-.0075-.0042-.0053-.003-.0048-.0027-.0079-.0045-.0044-.0024L34.2371,5.66l-.0055-.0031-.0053-.0029-.0047-.0027-.0083-.0046-.0039-.0022L34.2007,5.64l-.004-.0022-.0078-.0044L34.1837,5.63l-.0056-.0031-.0039-.0022L34.1648,5.62l-.0032-.0018-.01-.0053-.0034-.0019L34.1294,5.6l-.0026-.0015-.0107-.0058-.0024-.0014-.0124-.0068-.0006,0L34.094,5.58l-.001,0-.0123-.0068-.0018-.001-.0115-.0063-.0021-.0011-.02-.011-.0011,0-.0126-.0069-.001-.0005-.0132-.0073h0l-.0207-.0112,0,0L33.9827,5.52l-.0006,0q-.4119-.223-.8351-.4281ZM26.458,3.1423l-.1506,1.2913a19.66,19.66,0,0,1,3.2135.65l.3636-1.2481q-.2983-.087-.6-.1652h0l-.0391-.01h0l-.0386-.01-.0011,0-.0384-.01-.0011,0-.0124-.0032-.0007,0L29.14,3.6335h0L29.127,3.63l-.0014,0-.0122-.003-.0009,0L29.1,3.6237l-.0007,0-.0121-.003-.0017,0-.0119-.003-.0014,0-.0118-.003-.0006,0-.0117-.0028L29.0461,3.61l-.0116-.0029-.0015,0-.0116-.0028-.0008,0-.0121-.0029-.0016-.0005-.0121-.0029-.0013,0-.0121-.003h0l-.0121-.0029-.0018,0-.0119-.0029-.0016,0-.0115-.0028h-.0009l-.0119-.003-.0019,0-.0117-.0028-.0019-.0005-.0117-.0027,0,0L28.89,3.5723l-.0023,0L28.876,3.569l-.0016,0-.0117-.0027-.0007,0L28.85,3.5629l-.0025-.0006L28.8367,3.56l-.0026-.0006-.0109-.0026-.0009,0-.0118-.0028-.0021-.0005L28.7967,3.55l-.0018,0-.0121-.0028h0L28.77,3.5442l-.0016,0-.0119-.0028-.0017,0-.0243-.0056-.0021-.0005-.0117-.0026-.0016,0-.0246-.0056-.0017,0-.0119-.0027-.0018-.0005-.0244-.0055-.0017,0-.0119-.0027-.0018,0-.0122-.0028h0l-.012-.0028-.0017,0-.0118-.0026-.002,0-.0244-.0054-.0016,0-.0121-.0027-.0015,0-.025-.0055-.0012,0-.0122-.0027-.0016,0-.0255-.0056h0l-.0129-.0028-.0008,0-.0261-.0056h0L28.4374,3.47l-.0008,0-.026-.0056h0l-.013-.0028h0l-.04-.0084h0l-.04-.0083h0q-.8084-.1689-1.6387-.275h0l-.0133-.0017h-.0005l-.0266-.0034h-.001l-.0129-.0017h-.001l-.0258-.0032-.0018,0-.0121-.0015-.0021,0-.0123-.0015h-.0006l-.0118-.0015-.0026,0-.0118-.0014-.0023,0-.0119-.0014-.0013,0-.0108-.0013-.0035,0-.0108-.0013-.0038,0-.01-.0011-.0039,0-.0091-.0011L26.47,3.1437l-.01-.0012-.002,0Z"/></g><path class="b" d="M23.3155,16.2852a1.4131,1.4131,0,0,1,.4678.9843L25,30.2363a1.3057,1.3057,0,0,1-.2608.9961,1.245,1.245,0,0,1-.8867.4365,1.1763,1.1763,0,0,1-.9316-.2656,1.3633,1.3633,0,0,1-.419-.9326l-.8466-9.0244-3.0616,7.4023a2.1892,2.1892,0,0,1-.5029.7657,1.1738,1.1738,0,0,1-.7012.2968,1.218,1.218,0,0,1-.7431-.15,2.0325,2.0325,0,0,1-.6377-.67L11.6124,22.498l.8369,8.9151a1.3411,1.3411,0,0,1-.251.9853,1.19,1.19,0,0,1-.874.4463,1.1789,1.1789,0,0,1-.9316-.2656,1.3577,1.3577,0,0,1-.419-.9336L8.7569,18.6787a1.4248,1.4248,0,0,1,.2666-1.0517,1.28,1.28,0,0,1,.9385-.4756,1.4819,1.4819,0,0,1,1.4238.8174l5.7324,8.8085,3.9717-9.72a1.4536,1.4536,0,0,1,1.2032-1.0625A1.3192,1.3192,0,0,1,23.3155,16.2852Z"/><path class="b" d="M30.0479,30.7012a7.0155,7.0155,0,0,1-2.5566-.9864,1.3352,1.3352,0,0,1-.4033-1.8291.8148.8148,0,0,1,.6142-.3994,1.7809,1.7809,0,0,1,.9268.2217,6.57,6.57,0,0,0,2.0635.8008A7.9789,7.9789,0,0,0,33,28.6016a4.4924,4.4924,0,0,0,2.4-.7891,1.8368,1.8368,0,0,0,.7011-1.7119,1.41,1.41,0,0,0-.92-1.2061,10.6623,10.6623,0,0,0-2.7431-.6152,15.824,15.824,0,0,1-3.2217-.67,4.4322,4.4322,0,0,1-1.9492-1.2315,3.6392,3.6392,0,0,1-.8174-2.1113,4.088,4.088,0,0,1,.539-2.5029,5.0656,5.0656,0,0,1,1.9776-1.876,7.6091,7.6091,0,0,1,3.0215-.8916,7.682,7.682,0,0,1,5.26,1.1855,1.6822,1.6822,0,0,1,.4493.4336,1.3709,1.3709,0,0,1-.0235,1.3946.8151.8151,0,0,1-.6152.4,1.2149,1.2149,0,0,1-.4112-.0284,3.1793,3.1793,0,0,1-.5156-.1943A7.4556,7.4556,0,0,0,34.3,17.376a5.9164,5.9164,0,0,0-2.1-.1231,4.0728,4.0728,0,0,0-2.2988.8233,1.9349,1.9349,0,0,0-.7071,1.7568,1.54,1.54,0,0,0,.8955,1.3076,9.0123,9.0123,0,0,0,2.6905.6533,17.7132,17.7132,0,0,1,3.2568.6778,4.7172,4.7172,0,0,1,1.99,1.1943,3.31,3.31,0,0,1,.8408,2.02,3.9934,3.9934,0,0,1-.53,2.47,4.9536,4.9536,0,0,1-1.9727,1.82,8.0289,8.0289,0,0,1-3.0888.875A11.1248,11.1248,0,0,1,30.0479,30.7012Z"/></svg>