<svg xmlns="http://www.w3.org/2000/svg" width="48" height="102" viewBox="0 0 48 102"><defs><style>.a{fill:none;}.b,.c{fill:#eda44c;}.b,.e{opacity:0.6;}.b{isolation:isolate;}.d{fill:#362b3c;}</style></defs><title>soc_email</title><rect class="a" width="48" height="102"/><path class="b" d="M47.949,25.5a23.994,23.994,0,0,1-47.9,0C.021,26,0,26.5,0,27a24,24,0,0,0,48,0C48,26.5,47.979,26,47.949,25.5Z"/><path class="c" d="M24,47.35A23.35,23.35,0,1,1,47.35,24h0A23.377,23.377,0,0,1,24,47.35ZM12.35,33A1.652,1.652,0,0,0,14,34.65H34A1.652,1.652,0,0,0,35.65,33V19.905L24,26.26,12.35,19.906ZM14,13.35A1.652,1.652,0,0,0,12.35,15v2.386L24,23.74l11.65-6.354V15A1.652,1.652,0,0,0,34,13.35Z"/><path class="d" d="M24,1.3A22.7,22.7,0,1,1,1.3,24h0A22.725,22.725,0,0,1,24,1.3m0,23.18.623-.339,11-6,.677-.37V15A2.3,2.3,0,0,0,34,12.7H14A2.3,2.3,0,0,0,11.7,15h0v2.771l.677.37,11,6L24,24.48m0,1.04L13.623,19.859,11.7,18.811V33A2.3,2.3,0,0,0,14,35.3H34A2.3,2.3,0,0,0,36.3,33V18.811l-1.923,1.048L24,25.52M24,0A24,24,0,1,0,48,24,24,24,0,0,0,24,0Zm0,23L13,17V15a1,1,0,0,1,1-1H34a1,1,0,0,1,1,1v2Zm0,4,11-6V33a1,1,0,0,1-1,1H14a1,1,0,0,1-1-1V21Z"/><g class="e"><path class="c" d="M24,54A24,24,0,1,0,48,78,24,24,0,0,0,24,54ZM35,87a1,1,0,0,1-1,1H14a1,1,0,0,1-1-1V75l11,6,11-6Zm0-16L24,77,13,71V69a1,1,0,0,1,1-1H34a1,1,0,0,1,1,1Z"/></g><path class="d" d="M24,51A24,24,0,1,0,48,75,24,24,0,0,0,24,51ZM35,84a1,1,0,0,1-1,1H14a1,1,0,0,1-1-1V72l11,6,11-6Zm0-16L24,74,13,68V66a1,1,0,0,1,1-1H34a1,1,0,0,1,1,1Z"/></svg>