<?xml version="1.0" encoding="utf-8"?>
<!-- Generator: Adobe Illustrator 16.0.4, SVG Export Plug-In . SVG Version: 6.00 Build 0)  -->
<!DOCTYPE svg PUBLIC "-//W3C//DTD SVG 1.1//EN" "http://www.w3.org/Graphics/SVG/1.1/DTD/svg11.dtd">
<svg version="1.1" xmlns="http://www.w3.org/2000/svg" xmlns:xlink="http://www.w3.org/1999/xlink" x="0px" y="0px" width="48px"
	 height="102px" viewBox="0 0 48 102" style="enable-background:new 0 0 48 102;" xml:space="preserve">
<style type="text/css">
<![CDATA[
	.st0{fill-rule:evenodd;clip-rule:evenodd;fill:#71117E;}
	.st1{fill:#12A8A5;}
	.st2{fill:#E29A4C;}
	.st3{fill:#E3A730;}
	.st4{fill:#E3F2BF;}
	.st5{fill:#E4F0D7;}
	.st6{fill:#E55F7C;}
	.st7{opacity:0.5;fill:#55ACEE;}
	.st8{fill:#E6E6E6;}
	.st9{fill:#198583;}
	.st10{fill-rule:evenodd;clip-rule:evenodd;fill:none;}
	.st11{fill:#E8C95A;}
	.st12{opacity:0.5;fill:#BC112A;}
	.st13{opacity:0.15;}
	.st14{opacity:0.25;}
	.st15{opacity:0.35;}
	.st16{opacity:0.5;fill:none;stroke:#F3695A;stroke-miterlimit:10;}
	.st17{opacity:0.5;fill:#F3695A;}
	.st18{fill:#EAAF56;}
	.st19{fill:#EB9A2D;}
	.st20{fill:#EBB060;}
	.st21{fill:#EDA44C;}
	.st22{fill:#534E58;}
	.st23{fill:#55ACEE;}
	.st24{opacity:0.2;fill:#EDA44C;stroke:#362B3C;stroke-miterlimit:10;}
	.st25{fill:#575757;}
	.st26{fill:#8B9698;}
	.st27{fill:#58504E;}
	.st28{fill:#8C652F;}
	.st29{fill:#BC112A;}
	.st30{fill:#BD081C;}
	.st31{fill:#8E8A75;}
	.st32{fill:#BEBEBF;}
	.st33{fill:#BF1B3A;}
	.st34{fill:#F19D39;}
	.st35{fill:#238D83;}
	.st36{fill:#F2C549;}
	.st37{fill:#F3695A;}
	.st38{fill:#299488;}
	.st39{fill:#F9B4AC;}
	.st40{fill-rule:evenodd;clip-rule:evenodd;fill:#EDA44C;}
	.st41{opacity:0.5;fill:#9D47B2;}
	.st42{fill:#C1DA84;}
	.st43{fill:#C2BAC4;}
	.st44{opacity:0.5;fill:#32B779;}
	.st45{fill:#2B8F83;}
	.st46{fill:#FBAB01;}
	.st47{fill:#999999;}
	.st48{fill:#FCC457;}
	.st49{fill:none;stroke:#EB9A2D;stroke-width:2;stroke-linecap:round;stroke-linejoin:round;stroke-miterlimit:10;}
	.st50{opacity:0.2;fill:#9D47B2;}
	.st51{fill-rule:evenodd;clip-rule:evenodd;}
	.st52{opacity:0.2;}
	.st53{opacity:0.3;}
	.st54{opacity:0.4;}
	.st55{opacity:0.5;}
	.st56{opacity:0.6;}
	.st57{fill:#615957;}
	.st58{fill:none;stroke:#3E5054;stroke-width:1.2;stroke-miterlimit:10;}
	.st59{fill:#FFDD8B;}
	.st60{fill:#FFFFFF;}
	.st61{fill:none;}
	.st62{fill:none;stroke:#3E5054;stroke-width:1.2;stroke-linecap:round;stroke-linejoin:round;stroke-miterlimit:10;}
	.st63{fill:#9D47B2;}
	.st64{fill:#CCCCCC;}
	.st65{opacity:0.5;fill:#0873B2;}
	.st66{fill:#FFFFFF;stroke:#3E5053;stroke-width:1.4;stroke-miterlimit:10;}
	.st67{fill:#32B779;}
	.st68{fill:#333333;}
	.st69{fill:#362B3C;}
	.st70{opacity:0.6;fill:#EDA44C;}
	.st71{fill-rule:evenodd;clip-rule:evenodd;fill:#FF1550;}
	.st72{fill-rule:evenodd;clip-rule:evenodd;fill:#FFFFFF;}
	.st73{fill-rule:evenodd;clip-rule:evenodd;fill:#643C6B;}
	.st74{fill:#0873B2;}
	.st75{fill-rule:evenodd;clip-rule:evenodd;fill:#9D47B2;}
	.st76{fill:#3E5054;}
	.st77{fill:none;stroke:#EB9A2D;stroke-width:1.6;stroke-miterlimit:10;}
	.st78{fill:#71117E;}
	.st79{fill:#75685E;}
	.st80{fill-rule:evenodd;clip-rule:evenodd;fill:#362B3C;}
	.st81{fill:#DADBD0;}
	.st82{fill:#0D8072;}
	.st83{fill:none;stroke:#FFFFFF;stroke-width:3;stroke-miterlimit:10;}
	.st84{fill:#40413B;}
	.st85{opacity:0.5;fill:none;stroke:#362B3C;stroke-miterlimit:10;}
	.st86{fill:#45D7B0;}
]]>
</style>
<g id="BG">
</g>
<g id="Layer_1">
</g>
<g id="Title">
</g>
<g id="Location">
</g>
<g id="Subtitle">
</g>
<g id="Desc">
	<rect id="_x3C_Slice_x3E__1_" class="st61" width="48" height="102"/>
	<g>
		<path class="st63" d="M17.979,46.559c-4.593-1.227-8.777-3.883-11.854-7.539C2.595,34.82,0.65,29.486,0.65,24
			C0.65,11.125,11.125,0.65,24,0.65S47.35,11.125,47.35,24c0,5.486-1.943,10.818-5.473,15.016
			c-3.077,3.658-7.261,6.315-11.853,7.542c0.007-3.737,0.014-8.583,0.014-10.069c0-1.369-0.311-2.592-0.874-3.518
			c4.286-0.686,9.281-2.829,9.281-11.159c0-2.271-0.718-4.27-2.133-5.944c0.308-0.972,0.721-3.115-0.351-5.821L35.849,9.76
			l-0.292-0.094c-0.06-0.019-0.284-0.081-0.682-0.081c-0.841,0-2.667,0.292-5.576,2.213c-1.684-0.439-3.463-0.666-5.296-0.673
			c-1.838,0.007-3.618,0.233-5.299,0.673c-2.912-1.921-4.739-2.213-5.581-2.213c-0.396,0-0.621,0.062-0.681,0.081L12.149,9.76
			l-0.113,0.286c-1.07,2.706-0.656,4.851-0.349,5.822c-1.417,1.679-2.135,3.676-2.135,5.943c0,8.326,4.988,10.479,9.266,11.175
			c-0.334,0.553-0.579,1.211-0.721,1.943c-0.464,0.177-1.152,0.377-1.892,0.377c-1.372,0-2.468-0.687-3.259-2.041
			c-0.046-0.082-1.333-2.373-3.827-2.55c-0.004,0-0.009,0-0.013,0c-0.556,0-1.417,0.106-1.628,0.791
			c-0.248,0.803,0.682,1.438,1.079,1.709l0.043,0.029l0.047,0.021c0.005,0.003,1.212,0.629,2.072,2.813
			c0.359,1.199,2.043,3.563,5.714,3.562c0.486,0,0.999-0.04,1.53-0.121C17.97,41.012,17.979,46.559,17.979,46.559z"/>
		<path class="st69" d="M24,1.3c12.517,0,22.7,10.184,22.7,22.7c0,5.333-1.89,10.518-5.321,14.597
			c-2.808,3.339-6.562,5.819-10.703,7.097c0.006-3.586,0.012-7.831,0.012-9.205c0-1.116-0.193-2.149-0.555-3.031
			c4.312-0.873,8.962-3.373,8.962-11.646c0-2.31-0.693-4.354-2.063-6.093c0.306-1.171,0.566-3.309-0.465-5.912L36.34,9.235
			l-0.585-0.188c-0.131-0.041-0.419-0.112-0.88-0.112c-1.083,0-2.932,0.386-5.692,2.163c-1.653-0.406-3.393-0.615-5.187-0.622
			c-1.787,0.007-3.525,0.216-5.176,0.622c-2.764-1.777-4.613-2.163-5.697-2.163c-0.46,0-0.748,0.071-0.879,0.112l-0.586,0.188
			l-0.227,0.571c-1.029,2.605-0.769,4.742-0.463,5.913c-1.371,1.741-2.065,3.786-2.065,6.092c0,8.688,5.433,10.958,8.944,11.672
			c-0.122,0.301-0.225,0.619-0.307,0.952c-0.377,0.119-0.846,0.222-1.335,0.222c-1.14,0-2.022-0.562-2.681-1.69
			c-0.061-0.109-1.516-2.698-4.359-2.899l-0.054-0.003H9.066c-1.158,0-1.963,0.456-2.208,1.251c-0.39,1.261,0.907,2.146,1.333,2.437
			l0.056,0.044l0.094,0.044c0.042,0.022,1.013,0.562,1.763,2.449c0.193,0.561,1.577,4.004,6.331,4.004
			c0.286,0,0.581-0.014,0.883-0.039c0.003,1.408,0.007,3.495,0.011,5.441c-4.142-1.278-7.897-3.758-10.704-7.095
			C3.19,34.52,1.3,29.334,1.3,24C1.3,11.483,11.483,1.3,24,1.3 M24,0C10.745,0,0,10.745,0,24c0,5.881,2.118,11.264,5.629,15.438
			c3.3,3.923,7.832,6.77,13.002,7.952c-0.006-3.224-0.014-7.715-0.019-8.648c-0.809,0.176-1.532,0.252-2.178,0.252
			c-4.158,0-5.109-3.151-5.109-3.151c-0.982-2.496-2.4-3.163-2.4-3.163c-1.892-1.291,0.001-1.314,0.142-1.314
			c0.005,0,0.008,0,0.008,0c2.17,0.153,3.312,2.229,3.312,2.229c1.078,1.847,2.532,2.363,3.82,2.363
			c1.017,0,1.931-0.322,2.474-0.565c0.196-1.398,0.755-2.353,1.374-2.892c-4.802-0.547-9.851-2.401-9.851-10.688
			c0-2.361,0.843-4.29,2.225-5.802c-0.222-0.548-0.965-2.746,0.213-5.725c0,0,0.156-0.051,0.482-0.051
			c0.783,0,2.546,0.291,5.465,2.268c1.726-0.479,3.574-0.72,5.413-0.727c1.837,0.007,3.686,0.247,5.414,0.727
			c2.917-1.977,4.678-2.268,5.46-2.268c0.326,0,0.482,0.051,0.482,0.051c1.18,2.979,0.437,5.177,0.215,5.725
			c1.385,1.512,2.223,3.44,2.223,5.802c0,8.309-5.057,10.136-9.874,10.67c0.776,0.67,1.467,1.989,1.467,4.007
			c0,1.6-0.008,7.088-0.015,10.9c5.169-1.183,9.701-4.031,13.001-7.955C45.883,35.262,48,29.881,48,24C48,10.745,37.255,0,24,0L24,0
			z"/>
	</g>
	<g>
		<g class="st55">
			<path class="st78" d="M24,54C10.745,54,0,64.745,0,78c0,5.881,2.118,11.264,5.629,15.438c3.3,3.923,7.832,6.77,13.002,7.952
				c-0.006-3.224-0.014-7.715-0.019-8.648c-6.017,1.307-7.287-2.899-7.287-2.899c-0.982-2.496-2.4-3.163-2.4-3.163
				c-1.963-1.34,0.149-1.314,0.149-1.314c2.17,0.153,3.312,2.229,3.312,2.229c1.93,3.305,5.062,2.35,6.294,1.798
				c0.196-1.398,0.755-2.353,1.374-2.892c-4.802-0.547-9.851-2.401-9.851-10.688c0-2.361,0.843-4.29,2.225-5.802
				c-0.222-0.548-0.965-2.746,0.213-5.725c0,0,1.814-0.582,5.947,2.217c1.726-0.479,3.574-0.72,5.413-0.727
				c1.837,0.007,3.686,0.247,5.414,0.727c4.13-2.799,5.942-2.217,5.942-2.217c1.18,2.979,0.437,5.177,0.215,5.725
				c1.385,1.512,2.223,3.44,2.223,5.802c0,8.309-5.057,10.136-9.874,10.67c0.776,0.67,1.467,1.989,1.467,4.007
				c0,1.6-0.008,7.088-0.015,10.9c5.169-1.183,9.701-4.031,13.001-7.955C45.883,89.262,48,83.881,48,78C48,64.745,37.255,54,24,54z"
				/>
		</g>
		<g>
			<path class="st69" d="M24,51C10.745,51,0,61.745,0,75c0,5.881,2.118,11.264,5.629,15.438c3.3,3.923,7.832,6.77,13.002,7.952
				c-0.006-3.224-0.014-7.715-0.019-8.648c-6.017,1.307-7.287-2.899-7.287-2.899c-0.982-2.496-2.4-3.163-2.4-3.163
				c-1.963-1.34,0.149-1.314,0.149-1.314c2.17,0.153,3.312,2.229,3.312,2.229c1.93,3.305,5.062,2.35,6.294,1.798
				c0.196-1.398,0.755-2.353,1.374-2.892c-4.802-0.547-9.851-2.401-9.851-10.688c0-2.361,0.843-4.29,2.225-5.802
				c-0.222-0.548-0.965-2.746,0.213-5.725c0,0,1.814-0.582,5.947,2.217c1.726-0.479,3.574-0.72,5.413-0.727
				c1.837,0.007,3.686,0.247,5.414,0.727c4.13-2.799,5.942-2.217,5.942-2.217c1.18,2.979,0.437,5.177,0.215,5.725
				c1.385,1.512,2.223,3.44,2.223,5.802c0,8.309-5.057,10.136-9.874,10.67c0.776,0.67,1.467,1.989,1.467,4.007
				c0,1.6-0.008,7.088-0.015,10.9c5.169-1.183,9.701-4.031,13.001-7.955C45.883,86.262,48,80.881,48,75C48,61.745,37.255,51,24,51z"
				/>
		</g>
	</g>
	<path class="st41" d="M48,27c0-0.504-0.021-1.004-0.051-1.5c-0.084,1.348-0.279,2.663-0.576,3.941
		c-0.317,1.369-0.747,2.695-1.287,3.965C43.112,40.379,36.934,45.657,29.4,47.39h0.1v2.97C40.104,47.873,48,38.362,48,27z"/>
	<path class="st41" d="M18.6,47.39c-7.534-1.732-13.713-7.011-16.686-13.984c-0.54-1.269-0.97-2.595-1.287-3.964
		C0.33,28.163,0.135,26.848,0.052,25.5C0.021,25.996,0,26.496,0,27c0,11.362,7.896,20.873,18.5,23.359v-2.97H18.6z"/>
</g>
<g id="Layer_7">
</g>
</svg>
