<?xml version="1.0" encoding="utf-8"?>
<!-- Generator: Adobe Illustrator 16.0.4, SVG Export Plug-In . SVG Version: 6.00 Build 0)  -->
<!DOCTYPE svg PUBLIC "-//W3C//DTD SVG 1.1//EN" "http://www.w3.org/Graphics/SVG/1.1/DTD/svg11.dtd">
<svg version="1.1" xmlns="http://www.w3.org/2000/svg" xmlns:xlink="http://www.w3.org/1999/xlink" x="0px" y="0px" width="48px"
	 height="102px" viewBox="0 0 48 102" style="enable-background:new 0 0 48 102;" xml:space="preserve">
<style type="text/css">
<![CDATA[
	.st0{fill-rule:evenodd;clip-rule:evenodd;fill:#71117E;}
	.st1{fill:#12A8A5;}
	.st2{fill:#E29A4C;}
	.st3{fill:#E3A730;}
	.st4{fill:#E3F2BF;}
	.st5{fill:#E4F0D7;}
	.st6{fill:#E55F7C;}
	.st7{opacity:0.5;fill:#55ACEE;}
	.st8{fill:#E6E6E6;}
	.st9{fill:#198583;}
	.st10{fill-rule:evenodd;clip-rule:evenodd;fill:none;}
	.st11{fill:#E8C95A;}
	.st12{opacity:0.5;fill:#BC112A;}
	.st13{opacity:0.15;}
	.st14{opacity:0.25;}
	.st15{opacity:0.35;}
	.st16{opacity:0.5;fill:none;stroke:#F3695A;stroke-miterlimit:10;}
	.st17{opacity:0.5;fill:#F3695A;}
	.st18{fill:#EAAF56;}
	.st19{fill:#EB9A2D;}
	.st20{fill:#EBB060;}
	.st21{fill:#EDA44C;}
	.st22{fill:#534E58;}
	.st23{fill:#55ACEE;}
	.st24{opacity:0.2;fill:#EDA44C;stroke:#362B3C;stroke-miterlimit:10;}
	.st25{fill:#575757;}
	.st26{fill:#8B9698;}
	.st27{fill:#58504E;}
	.st28{fill:#8C652F;}
	.st29{fill:#BC112A;}
	.st30{fill:#BD081C;}
	.st31{fill:#8E8A75;}
	.st32{fill:#BEBEBF;}
	.st33{fill:#BF1B3A;}
	.st34{fill:#F19D39;}
	.st35{fill:#238D83;}
	.st36{fill:#F2C549;}
	.st37{fill:#F3695A;}
	.st38{fill:#299488;}
	.st39{fill:#F9B4AC;}
	.st40{fill-rule:evenodd;clip-rule:evenodd;fill:#EDA44C;}
	.st41{opacity:0.5;fill:#9D47B2;}
	.st42{fill:#C1DA84;}
	.st43{fill:#C2BAC4;}
	.st44{opacity:0.5;fill:#32B779;}
	.st45{fill:#2B8F83;}
	.st46{fill:#FBAB01;}
	.st47{fill:#999999;}
	.st48{fill:#FCC457;}
	.st49{fill:none;stroke:#EB9A2D;stroke-width:2;stroke-linecap:round;stroke-linejoin:round;stroke-miterlimit:10;}
	.st50{opacity:0.2;fill:#9D47B2;}
	.st51{fill-rule:evenodd;clip-rule:evenodd;}
	.st52{opacity:0.2;}
	.st53{opacity:0.3;}
	.st54{opacity:0.4;}
	.st55{opacity:0.5;}
	.st56{opacity:0.6;}
	.st57{fill:#615957;}
	.st58{fill:none;stroke:#3E5054;stroke-width:1.2;stroke-miterlimit:10;}
	.st59{fill:#FFDD8B;}
	.st60{fill:#FFFFFF;}
	.st61{fill:none;}
	.st62{fill:none;stroke:#3E5054;stroke-width:1.2;stroke-linecap:round;stroke-linejoin:round;stroke-miterlimit:10;}
	.st63{fill:#9D47B2;}
	.st64{fill:#CCCCCC;}
	.st65{opacity:0.5;fill:#0873B2;}
	.st66{fill:#FFFFFF;stroke:#3E5053;stroke-width:1.4;stroke-miterlimit:10;}
	.st67{fill:#32B779;}
	.st68{fill:#333333;}
	.st69{fill:#362B3C;}
	.st70{opacity:0.6;fill:#EDA44C;}
	.st71{fill-rule:evenodd;clip-rule:evenodd;fill:#FF1550;}
	.st72{fill-rule:evenodd;clip-rule:evenodd;fill:#FFFFFF;}
	.st73{fill-rule:evenodd;clip-rule:evenodd;fill:#643C6B;}
	.st74{fill:#0873B2;}
	.st75{fill-rule:evenodd;clip-rule:evenodd;fill:#9D47B2;}
	.st76{fill:#3E5054;}
	.st77{fill:none;stroke:#EB9A2D;stroke-width:1.6;stroke-miterlimit:10;}
	.st78{fill:#71117E;}
	.st79{fill:#75685E;}
	.st80{fill-rule:evenodd;clip-rule:evenodd;fill:#362B3C;}
	.st81{fill:#DADBD0;}
	.st82{fill:#0D8072;}
	.st83{fill:none;stroke:#FFFFFF;stroke-width:3;stroke-miterlimit:10;}
	.st84{fill:#40413B;}
	.st85{opacity:0.5;fill:none;stroke:#362B3C;stroke-miterlimit:10;}
	.st86{fill:#45D7B0;}
]]>
</style>
<g id="BG">
</g>
<g id="Layer_1">
</g>
<g id="Title">
</g>
<g id="Location">
</g>
<g id="Subtitle">
</g>
<g id="Desc">
	<path class="st44" d="M47.949,25.5c-0.084,1.348-0.279,2.663-0.576,3.941c-0.317,1.369-0.747,2.695-1.287,3.965
		C42.427,41.985,33.917,48,24,48S5.572,41.985,1.914,33.405c-0.54-1.269-0.97-2.595-1.287-3.964
		C0.33,28.163,0.135,26.848,0.052,25.5C0.021,25.996,0,26.496,0,27c0,13.256,10.744,24,24,24s24-10.744,24-24
		C48,26.496,47.979,25.996,47.949,25.5z"/>
	<rect id="_x3C_Slice_x3E__4_" class="st61" width="48" height="102"/>
	<g>
		<path class="st67" d="M24,47.35C11.125,47.35,0.65,36.875,0.65,24S11.125,0.65,24,0.65S47.35,11.125,47.35,24
			S36.875,47.35,24,47.35z M29.548,39.993c0.302,0.419,0.729,0.657,1.183,0.657c0.456,0,0.883-0.239,1.185-0.659l3.567-3.126
			l0.049-0.076c0.315-0.488,0.365-1.007,0.139-1.423c-0.227-0.417-0.69-0.656-1.271-0.656H33.61V13.12c0-0.8-0.65-1.451-1.45-1.451
			h-2.88c-0.8,0-1.45,0.651-1.45,1.451v7.829h-7.66V13.29h0.79c0.581,0,1.044-0.239,1.271-0.655
			c0.227-0.417,0.175-0.935-0.141-1.423l-0.05-0.076l-3.588-3.129C18.15,7.588,17.724,7.35,17.27,7.35
			c-0.456,0-0.883,0.239-1.185,0.659l-3.567,3.126l-0.049,0.076c-0.315,0.488-0.365,1.007-0.139,1.423
			c0.227,0.417,0.69,0.656,1.271,0.656h0.788v21.59c0,0.8,0.65,1.451,1.45,1.451h2.88c0.8,0,1.45-0.651,1.45-1.451V26.73h7.66v7.979
			h-0.79c-0.581,0-1.044,0.239-1.271,0.655c-0.227,0.417-0.175,0.935,0.141,1.423l0.05,0.076L29.548,39.993z"/>
		<path class="st69" d="M24,1.3c12.517,0,22.7,10.184,22.7,22.7S36.517,46.7,24,46.7S1.3,36.517,1.3,24S11.483,1.3,24,1.3
			 M15.604,7.565l-3.446,3.021l-0.137,0.12l-0.1,0.152c-0.447,0.694-0.507,1.455-0.162,2.087c0.344,0.632,1.016,0.994,1.842,0.994
			h0.139v20.94c0,1.158,0.941,2.101,2.1,2.101h2.88c1.157,0,2.1-0.942,2.1-2.101v-7.5h6.361v6.681H27.04
			c-0.827,0-1.498,0.362-1.842,0.994c-0.344,0.633-0.282,1.393,0.167,2.087l0.099,0.153l0.138,0.119l3.467,3.023
			c0.423,0.551,1.019,0.863,1.662,0.863c0.646,0,1.242-0.313,1.665-0.866l3.446-3.021l0.137-0.12l0.1-0.152
			c0.447-0.694,0.507-1.455,0.162-2.087c-0.344-0.632-1.016-0.994-1.842-0.994H34.26V13.12c0-1.158-0.941-2.101-2.1-2.101h-2.88
			c-1.157,0-2.1,0.942-2.1,2.101v7.18h-6.361v-6.36h0.141c0.827,0,1.498-0.362,1.842-0.994c0.344-0.633,0.282-1.393-0.167-2.087
			l-0.099-0.153l-0.138-0.119l-3.467-3.023c-0.423-0.551-1.019-0.863-1.662-0.863C16.624,6.699,16.027,7.013,15.604,7.565 M24,0
			C10.744,0,0,10.745,0,24c0,13.256,10.744,24,24,24s24-10.744,24-24C48,10.745,37.256,0,24,0L24,0z M13.602,12.64
			c-0.704,0-0.969-0.484-0.587-1.076l3.561-3.12C16.766,8.147,17.018,8,17.27,8c0.251,0,0.503,0.147,0.693,0.442l3.581,3.123
			c0.383,0.591,0.12,1.074-0.584,1.074h-1.44v8.96h8.961V13.12c0-0.44,0.359-0.801,0.8-0.801h2.88c0.44,0,0.8,0.36,0.8,0.801v22.24
			h1.438c0.704,0,0.969,0.484,0.587,1.076l-3.561,3.12C31.234,39.853,30.982,40,30.73,40c-0.251,0-0.503-0.147-0.693-0.442
			l-3.581-3.123c-0.383-0.591-0.12-1.074,0.584-1.074h1.44v-9.28H19.52v8.8c0,0.44-0.359,0.801-0.8,0.801h-2.88
			c-0.44,0-0.8-0.36-0.8-0.801V12.64H13.602L13.602,12.64z"/>
	</g>
	<g>
		<g class="st55">
			<path class="st67" d="M24,54C10.744,54,0,64.745,0,78c0,13.256,10.744,24,24,24s24-10.744,24-24C48,64.745,37.256,54,24,54z
				 M34.985,90.437l-3.561,3.12c-0.381,0.591-1.006,0.592-1.388,0.001l-3.581-3.123c-0.383-0.591-0.12-1.074,0.584-1.074h1.44v-9.28
				H19.52v8.8c0,0.44-0.359,0.801-0.8,0.801h-2.88c-0.44,0-0.8-0.36-0.8-0.801V66.64h-1.438c-0.704,0-0.969-0.484-0.587-1.076
				l3.561-3.12c0.381-0.591,1.006-0.592,1.388-0.001l3.581,3.123c0.383,0.591,0.12,1.074-0.584,1.074h-1.44v8.96h8.961V67.12
				c0-0.44,0.359-0.801,0.8-0.801h2.88c0.44,0,0.8,0.36,0.8,0.801v22.24h1.438C35.103,89.36,35.367,89.845,34.985,90.437z"/>
		</g>
		<g>
			<g>
				<path class="st69" d="M24,51C10.744,51,0,61.745,0,75c0,13.256,10.744,24,24,24s24-10.744,24-24C48,61.745,37.256,51,24,51z
					 M34.985,87.437l-3.561,3.12c-0.381,0.591-1.006,0.592-1.388,0.001l-3.581-3.123c-0.383-0.591-0.12-1.074,0.584-1.074h1.44
					v-9.28H19.52v8.8c0,0.44-0.359,0.801-0.8,0.801h-2.88c-0.44,0-0.8-0.36-0.8-0.801V63.64h-1.438
					c-0.704,0-0.969-0.484-0.587-1.076l3.561-3.12c0.381-0.591,1.006-0.592,1.388-0.001l3.581,3.123
					c0.383,0.591,0.12,1.074-0.584,1.074h-1.44v8.96h8.961V64.12c0-0.44,0.359-0.801,0.8-0.801h2.88c0.44,0,0.8,0.36,0.8,0.801
					v22.24h1.438C35.103,86.36,35.367,86.845,34.985,87.437z"/>
			</g>
		</g>
	</g>
</g>
<g id="Layer_7">
</g>
</svg>
