<?xml version="1.0" encoding="utf-8"?>
<!-- Generator: Adobe Illustrator 16.0.4, SVG Export Plug-In . SVG Version: 6.00 Build 0)  -->
<!DOCTYPE svg PUBLIC "-//W3C//DTD SVG 1.1//EN" "http://www.w3.org/Graphics/SVG/1.1/DTD/svg11.dtd">
<svg version="1.1" xmlns="http://www.w3.org/2000/svg" xmlns:xlink="http://www.w3.org/1999/xlink" x="0px" y="0px" width="48px"
	 height="102px" viewBox="0 0 48 102" style="enable-background:new 0 0 48 102;" xml:space="preserve">
<style type="text/css">
<![CDATA[
	.st0{fill-rule:evenodd;clip-rule:evenodd;fill:#71117E;}
	.st1{fill:#12A8A5;}
	.st2{fill:#E29A4C;}
	.st3{fill:#E3A730;}
	.st4{fill:#E3F2BF;}
	.st5{fill:#E4F0D7;}
	.st6{fill:#E55F7C;}
	.st7{opacity:0.5;fill:#55ACEE;}
	.st8{fill:#E6E6E6;}
	.st9{fill:#198583;}
	.st10{fill-rule:evenodd;clip-rule:evenodd;fill:none;}
	.st11{fill:#E8C95A;}
	.st12{opacity:0.5;fill:#BC112A;}
	.st13{opacity:0.15;}
	.st14{opacity:0.25;}
	.st15{opacity:0.35;}
	.st16{opacity:0.5;fill:none;stroke:#F3695A;stroke-miterlimit:10;}
	.st17{opacity:0.5;fill:#F3695A;}
	.st18{fill:#EAAF56;}
	.st19{fill:#EB9A2D;}
	.st20{fill:#EBB060;}
	.st21{fill:#EDA44C;}
	.st22{fill:#534E58;}
	.st23{fill:#55ACEE;}
	.st24{opacity:0.2;fill:#EDA44C;stroke:#362B3C;stroke-miterlimit:10;}
	.st25{fill:#575757;}
	.st26{fill:#8B9698;}
	.st27{fill:#58504E;}
	.st28{fill:#8C652F;}
	.st29{fill:#BC112A;}
	.st30{fill:#BD081C;}
	.st31{fill:#8E8A75;}
	.st32{fill:#BEBEBF;}
	.st33{fill:#BF1B3A;}
	.st34{fill:#F19D39;}
	.st35{fill:#238D83;}
	.st36{fill:#F2C549;}
	.st37{fill:#F3695A;}
	.st38{fill:#299488;}
	.st39{fill:#F9B4AC;}
	.st40{fill-rule:evenodd;clip-rule:evenodd;fill:#EDA44C;}
	.st41{opacity:0.5;fill:#9D47B2;}
	.st42{fill:#C1DA84;}
	.st43{fill:#C2BAC4;}
	.st44{opacity:0.5;fill:#32B779;}
	.st45{fill:#2B8F83;}
	.st46{fill:#FBAB01;}
	.st47{fill:#999999;}
	.st48{fill:#FCC457;}
	.st49{fill:none;stroke:#EB9A2D;stroke-width:2;stroke-linecap:round;stroke-linejoin:round;stroke-miterlimit:10;}
	.st50{opacity:0.2;fill:#9D47B2;}
	.st51{fill-rule:evenodd;clip-rule:evenodd;}
	.st52{opacity:0.2;}
	.st53{opacity:0.3;}
	.st54{opacity:0.4;}
	.st55{opacity:0.5;}
	.st56{opacity:0.6;}
	.st57{fill:#615957;}
	.st58{fill:none;stroke:#3E5054;stroke-width:1.2;stroke-miterlimit:10;}
	.st59{fill:#FFDD8B;}
	.st60{fill:#FFFFFF;}
	.st61{fill:none;}
	.st62{fill:none;stroke:#3E5054;stroke-width:1.2;stroke-linecap:round;stroke-linejoin:round;stroke-miterlimit:10;}
	.st63{fill:#9D47B2;}
	.st64{fill:#CCCCCC;}
	.st65{opacity:0.5;fill:#0873B2;}
	.st66{fill:#FFFFFF;stroke:#3E5053;stroke-width:1.4;stroke-miterlimit:10;}
	.st67{fill:#32B779;}
	.st68{fill:#333333;}
	.st69{fill:#362B3C;}
	.st70{opacity:0.6;fill:#EDA44C;}
	.st71{fill-rule:evenodd;clip-rule:evenodd;fill:#FF1550;}
	.st72{fill-rule:evenodd;clip-rule:evenodd;fill:#FFFFFF;}
	.st73{fill-rule:evenodd;clip-rule:evenodd;fill:#643C6B;}
	.st74{fill:#0873B2;}
	.st75{fill-rule:evenodd;clip-rule:evenodd;fill:#9D47B2;}
	.st76{fill:#3E5054;}
	.st77{fill:none;stroke:#EB9A2D;stroke-width:1.6;stroke-miterlimit:10;}
	.st78{fill:#71117E;}
	.st79{fill:#75685E;}
	.st80{fill-rule:evenodd;clip-rule:evenodd;fill:#362B3C;}
	.st81{fill:#DADBD0;}
	.st82{fill:#0D8072;}
	.st83{fill:none;stroke:#FFFFFF;stroke-width:3;stroke-miterlimit:10;}
	.st84{fill:#40413B;}
	.st85{opacity:0.5;fill:none;stroke:#362B3C;stroke-miterlimit:10;}
	.st86{fill:#45D7B0;}
]]>
</style>
<g id="BG">
</g>
<g id="Layer_1">
</g>
<g id="Title">
</g>
<g id="Location">
</g>
<g id="Subtitle">
</g>
<g id="Desc">
	<rect id="_x3C_Slice_x3E__3_" class="st10" width="48" height="102"/>
	<g>
		<path class="st23" d="M24,47.35C11.125,47.35,0.65,36.875,0.65,24S11.125,0.65,24,0.65S47.35,11.125,47.35,24
			S36.875,47.35,24,47.35z M10.647,33.962c2.735,1.758,5.901,2.688,9.157,2.688c10.637,0,16.993-8.64,16.993-16.992
			c0-0.142-0.002-0.283-0.005-0.424c1.072-0.821,1.995-1.807,2.747-2.933l1.244-1.865l-2.049,0.91
			c-0.263,0.116-0.53,0.223-0.801,0.317c0.395-0.544,0.702-1.15,0.909-1.799l0.521-1.63l-1.472,0.874
			c-0.958,0.569-2.001,0.986-3.104,1.242c-1.187-1.12-2.771-1.756-4.403-1.756c-3.526,0-6.396,2.869-6.396,6.395
			c0,0.202,0.01,0.401,0.027,0.598c-4.117-0.421-7.931-2.47-10.562-5.698l-0.593-0.728l-0.473,0.811
			c-0.567,0.973-0.868,2.084-0.868,3.213c0,1.32,0.386,2.572,1.079,3.612c-0.109-0.045-1.25-0.533-1.25-0.533v0.986
			c0,2.041,0.948,3.882,2.455,5.073l-0.638-0.126l0.336,1.05c0.653,2.042,2.273,3.582,4.265,4.178
			c-1.64,0.938-3.479,1.429-5.4,1.429c-0.403,0-0.813-0.026-1.292-0.084l-2.809-0.338L10.647,33.962z"/>
		<path class="st69" d="M24,1.3c12.517,0,22.7,10.184,22.7,22.7S36.517,46.7,24,46.7S1.3,36.517,1.3,24S11.483,1.3,24,1.3
			 M34.966,13.637c-1.271-1.083-2.902-1.691-4.58-1.691c-3.837,0-6.967,3.082-7.044,6.9c-3.66-0.561-7.02-2.467-9.383-5.368
			l-1.186-1.454l-0.945,1.62c-0.625,1.072-0.956,2.297-0.956,3.541c0,0.809,0.132,1.595,0.381,2.33l-0.552-0.236v1.972v0.07
			c0,1.698,0.622,3.284,1.67,4.521l0.514,1.604c0.562,1.754,1.769,3.17,3.312,4.021c-1.205,0.486-2.496,0.737-3.829,0.737
			c-0.376,0-0.763-0.025-1.214-0.08l-5.618-0.675l4.76,3.06c2.841,1.825,6.128,2.79,9.509,2.79c11.043,0,17.643-8.97,17.643-17.642
			c0-0.037,0-0.074,0-0.111c1.02-0.823,1.902-1.791,2.633-2.885l2.49-3.729l-3.208,1.424c0.036-0.097,0.069-0.194,0.101-0.293
			l1.04-3.261l-2.942,1.747C36.754,13.028,35.884,13.393,34.966,13.637 M24,0C10.744,0,0,10.745,0,24c0,13.256,10.744,24,24,24
			s24-10.744,24-24C48,10.745,37.256,0,24,0L24,0z M24.791,20.298c-0.101-0.415-0.15-0.857-0.15-1.309
			c0-3.172,2.572-5.744,5.745-5.744c1.654,0,3.145,0.701,4.194,1.815c1.307-0.262,2.536-0.735,3.645-1.394
			c-0.428,1.341-1.34,2.467-2.521,3.178c1.157-0.139,2.266-0.448,3.295-0.905c-0.771,1.154-1.743,2.163-2.865,2.975
			c0.008,0.245,0.014,0.494,0.014,0.743c0,7.589-5.772,16.342-16.343,16.342c-3.241,0-6.264-0.95-8.806-2.584
			c0.455,0.055,0.905,0.089,1.369,0.089c2.692,0,5.163-0.924,7.129-2.461c-2.514-0.051-4.643-1.709-5.374-3.994
			c0.351,0.069,0.693,0.107,1.067,0.107c0.523,0,0.998-0.073,1.48-0.203c-2.629-0.529-4.67-2.851-4.67-5.633c0-0.024,0-0.046,0-0.07
			c1,0.429,1.722,0.684,2.666,0.713c-1.544-1.027-2.495-2.786-2.495-4.778c0-1.051,0.284-2.037,0.779-2.886
			C15.783,17.774,20.015,20.059,24.791,20.298L24.791,20.298z"/>
	</g>
	<g>
		<g class="st55">
			<path class="st23" d="M24,54C10.744,54,0,64.745,0,78c0,13.256,10.744,24,24,24s24-10.744,24-24C48,64.745,37.256,54,24,54z
				 M36.134,72.914c0.008,0.245,0.014,0.494,0.014,0.743c0,7.589-5.772,16.342-16.343,16.342c-3.241,0-6.264-0.95-8.806-2.584
				c0.455,0.055,0.905,0.089,1.369,0.089c2.692,0,5.163-0.924,7.129-2.461c-2.514-0.051-4.643-1.709-5.374-3.994
				c0.351,0.069,0.693,0.107,1.067,0.107c0.523,0,0.998-0.073,1.48-0.203c-2.629-0.529-4.67-2.851-4.67-5.633
				c0-0.024,0-0.046,0-0.07c1,0.429,1.722,0.684,2.666,0.713c-1.544-1.027-2.495-2.786-2.495-4.778c0-1.051,0.284-2.037,0.779-2.886
				c2.832,3.476,7.063,5.76,11.84,5.999c-0.101-0.415-0.15-0.857-0.15-1.309c0-3.172,2.572-5.744,5.745-5.744
				c1.654,0,3.145,0.701,4.194,1.815c1.307-0.262,2.536-0.735,3.645-1.394c-0.428,1.341-1.34,2.467-2.521,3.178
				c1.157-0.139,2.266-0.448,3.295-0.905C38.229,71.094,37.256,72.103,36.134,72.914z"/>
		</g>
		<g>
			<g>
				<path class="st69" d="M24,51C10.744,51,0,61.745,0,75c0,13.256,10.744,24,24,24s24-10.744,24-24C48,61.745,37.256,51,24,51z
					 M36.134,69.914c0.008,0.245,0.014,0.494,0.014,0.743c0,7.589-5.772,16.342-16.343,16.342c-3.241,0-6.264-0.95-8.806-2.584
					c0.455,0.055,0.905,0.089,1.369,0.089c2.692,0,5.163-0.924,7.129-2.461c-2.514-0.051-4.643-1.709-5.374-3.994
					c0.351,0.069,0.693,0.107,1.067,0.107c0.523,0,0.998-0.073,1.48-0.203c-2.629-0.529-4.67-2.851-4.67-5.633
					c0-0.024,0-0.046,0-0.07c1,0.429,1.722,0.684,2.666,0.713c-1.544-1.027-2.495-2.786-2.495-4.778
					c0-1.051,0.284-2.037,0.779-2.886c2.832,3.476,7.063,5.76,11.84,5.999c-0.101-0.415-0.15-0.857-0.15-1.309
					c0-3.172,2.572-5.744,5.745-5.744c1.654,0,3.145,0.701,4.194,1.815c1.307-0.262,2.536-0.735,3.645-1.394
					c-0.428,1.341-1.34,2.467-2.521,3.178c1.157-0.139,2.266-0.448,3.295-0.905C38.229,68.094,37.256,69.103,36.134,69.914z"/>
			</g>
		</g>
	</g>
	<path class="st7" d="M47.949,25.5c-0.084,1.348-0.279,2.663-0.576,3.941c-0.317,1.369-0.747,2.695-1.287,3.965
		C42.427,41.985,33.917,48,24,48S5.572,41.985,1.914,33.405c-0.54-1.269-0.97-2.595-1.287-3.964
		C0.33,28.163,0.135,26.848,0.052,25.5C0.021,25.996,0,26.496,0,27c0,13.256,10.744,24,24,24s24-10.744,24-24
		C48,26.496,47.979,25.996,47.949,25.5z"/>
</g>
<g id="Layer_7">
</g>
</svg>
