<svg xmlns="http://www.w3.org/2000/svg" width="48" height="102" viewBox="0 0 48 102"><defs><style>.a,.c{fill:#32b779;}.a,.e{opacity:0.5;}.a{isolation:isolate;}.b{fill:none;}.d{fill:#362b3c;}</style></defs><title>soc_hackerrank</title><path class="a" d="M47.949,25.5a23.994,23.994,0,0,1-47.9,0C.021,26,0,26.5,0,27a24,24,0,0,0,48,0C48,26.5,47.979,26,47.949,25.5Z"/><rect class="b" width="48" height="102"/><path class="c" d="M24,47.35A23.35,23.35,0,1,1,47.35,24h0A23.377,23.377,0,0,1,24,47.35Zm5.548-7.357a1.394,1.394,0,0,0,2.368,0l3.567-3.126.049-.076A1.274,1.274,0,0,0,34.4,34.71h-.79V13.12a1.452,1.452,0,0,0-1.45-1.451H29.28a1.452,1.452,0,0,0-1.45,1.451v7.829H20.17V13.29h.79a1.376,1.376,0,0,0,1.271-.655,1.373,1.373,0,0,0-.141-1.423l-.05-.076L18.452,8.007a1.393,1.393,0,0,0-2.367,0l-3.567,3.126-.049.076A1.274,1.274,0,0,0,13.6,13.29h.788V34.88a1.452,1.452,0,0,0,1.45,1.451h2.88a1.452,1.452,0,0,0,1.45-1.451V26.73h7.66v7.979h-.79a1.272,1.272,0,0,0-1.13,2.078l.05.076Z"/><path class="d" d="M24,1.3A22.7,22.7,0,1,1,1.3,24h0A22.726,22.726,0,0,1,24,1.3M15.6,7.565l-3.446,3.021-.137.12-.1.152a1.919,1.919,0,0,0,1.68,3.081h.139v20.94a2.1,2.1,0,0,0,2.1,2.1h2.88a2.1,2.1,0,0,0,2.1-2.1v-7.5h6.361V34.06H27.04a1.916,1.916,0,0,0-1.675,3.081l.1.153.138.119,3.467,3.023a2.033,2.033,0,0,0,3.327,0l3.446-3.021.137-.12.1-.152a1.919,1.919,0,0,0-1.68-3.081h-.14V13.12a2.1,2.1,0,0,0-2.1-2.1H29.28a2.1,2.1,0,0,0-2.1,2.1h0V20.3H20.819V13.94h.141a1.916,1.916,0,0,0,1.675-3.081l-.1-.153-.138-.119L18.931,7.564a2.034,2.034,0,0,0-3.327,0M24,0A24,24,0,1,0,48,24,24,24,0,0,0,24,0ZM13.6,12.64c-.7,0-.969-.484-.587-1.076l3.561-3.12a.764.764,0,0,1,1.387,0l3.581,3.123c.383.591.12,1.074-.584,1.074H19.52V21.6h8.961V13.12a.8.8,0,0,1,.8-.8h2.88a.8.8,0,0,1,.8.8V35.36H34.4c.7,0,.969.484.587,1.076l-3.561,3.12a.765.765,0,0,1-1.388,0l-3.581-3.123c-.383-.591-.12-1.074.584-1.074h1.44v-9.28H19.52v8.8a.8.8,0,0,1-.8.8H15.84a.8.8,0,0,1-.8-.8V12.64Z"/><g class="e"><path class="c" d="M24,54A24,24,0,1,0,48,78,24,24,0,0,0,24,54ZM34.985,90.437l-3.561,3.12a.765.765,0,0,1-1.388,0l-3.581-3.123c-.383-.591-.12-1.074.584-1.074h1.44V80.08H19.52v8.8a.8.8,0,0,1-.8.8H15.84a.8.8,0,0,1-.8-.8h0V66.64H13.6c-.7,0-.969-.484-.587-1.076l3.561-3.12a.765.765,0,0,1,1.388,0l3.581,3.123c.383.591.12,1.074-.584,1.074h-1.44V75.6H28.48V67.12a.8.8,0,0,1,.8-.8h2.88a.8.8,0,0,1,.8.8h0V89.36H34.4C35.1,89.36,35.367,89.845,34.985,90.437Z"/></g><path class="d" d="M24,51A24,24,0,1,0,48,75,24,24,0,0,0,24,51ZM34.985,87.437l-3.561,3.12a.765.765,0,0,1-1.388,0l-3.581-3.123c-.383-.591-.12-1.074.584-1.074h1.44V77.08H19.52v8.8a.8.8,0,0,1-.8.8H15.84a.8.8,0,0,1-.8-.8h0V63.64H13.6c-.7,0-.969-.484-.587-1.076l3.561-3.12a.765.765,0,0,1,1.388,0l3.581,3.123c.383.591.12,1.074-.584,1.074h-1.44V72.6H28.48V64.12a.8.8,0,0,1,.8-.8h2.88a.8.8,0,0,1,.8.8V86.36H34.4C35.1,86.36,35.367,86.845,34.985,87.437Z"/></svg>