<svg xmlns="http://www.w3.org/2000/svg" width="48" height="102" viewBox="0 0 48 102"><defs><style>.a{fill:none;}.b,.e{fill:#55acee;}.c{fill:#362b3c;}.d,.e{opacity:0.5;}.e{isolation:isolate;}</style></defs><title>w_close</title><rect class="a" width="48" height="102"/><path class="b" d="M24,47.35A23.35,23.35,0,1,1,47.35,24h0A23.377,23.377,0,0,1,24,47.35ZM10.647,33.962a16.981,16.981,0,0,0,26.15-14.3c0-.142,0-.283-.005-.424A12.26,12.26,0,0,0,39.539,16.3l1.244-1.865-2.049.91c-.263.116-.53.223-.8.317a6.335,6.335,0,0,0,.909-1.8l.521-1.63-1.472.874a10.88,10.88,0,0,1-3.1,1.242,6.4,6.4,0,0,0-10.8,4.639c0,.2.01.4.027.6a15.711,15.711,0,0,1-10.562-5.7l-.593-.728-.473.811a6.389,6.389,0,0,0-.868,3.213A6.5,6.5,0,0,0,12.6,20.8c-.109-.045-1.25-.533-1.25-.533v.986a6.454,6.454,0,0,0,2.45,5.07l-.638-.126.336,1.05a6.4,6.4,0,0,0,4.265,4.178,10.811,10.811,0,0,1-5.4,1.429,10.541,10.541,0,0,1-1.292-.084l-2.809-.338Z"/><path class="c" d="M24,1.3A22.7,22.7,0,1,1,1.3,24h0A22.726,22.726,0,0,1,24,1.3M34.966,13.637a7.046,7.046,0,0,0-11.624,5.209,15.062,15.062,0,0,1-9.383-5.368l-1.186-1.454-.945,1.62a7.039,7.039,0,0,0-.956,3.541,7.258,7.258,0,0,0,.381,2.33l-.552-.236v2.042a6.989,6.989,0,0,0,1.67,4.521l.514,1.6A7.044,7.044,0,0,0,16.2,31.467a10.2,10.2,0,0,1-3.829.737,9.864,9.864,0,0,1-1.214-.08l-5.618-.675,4.76,3.06A17.633,17.633,0,0,0,37.448,19.657v-.111a12.911,12.911,0,0,0,2.633-2.885l2.49-3.729-3.208,1.424c.036-.1.069-.194.1-.293L40.5,10.8l-2.942,1.747a10.235,10.235,0,0,1-2.6,1.088M24,0A24,24,0,1,0,48,24,24,24,0,0,0,24,0Zm.791,20.3a5.553,5.553,0,0,1-.15-1.309A5.747,5.747,0,0,1,34.58,15.06a11.579,11.579,0,0,0,3.645-1.394A5.773,5.773,0,0,1,35.7,16.844a11.492,11.492,0,0,0,3.3-.9,11.7,11.7,0,0,1-2.865,2.975c.008.245.014.494.014.743C36.148,27.246,30.376,36,19.8,36A16.235,16.235,0,0,1,11,33.415a11.321,11.321,0,0,0,1.369.089A11.534,11.534,0,0,0,19.5,31.043a5.766,5.766,0,0,1-5.374-3.994,5.415,5.415,0,0,0,1.067.107,5.561,5.561,0,0,0,1.48-.2A5.8,5.8,0,0,1,12,21.32v-.07a6.883,6.883,0,0,0,2.666.713A5.793,5.793,0,0,1,12.95,14.3,16.3,16.3,0,0,0,24.791,20.3Z"/><g class="d"><path class="b" d="M24,54A24,24,0,1,0,48,78,24,24,0,0,0,24,54ZM36.134,72.914c.008.245.014.494.014.743C36.148,81.246,30.376,90,19.8,90A16.235,16.235,0,0,1,11,87.415a11.321,11.321,0,0,0,1.369.089A11.534,11.534,0,0,0,19.5,85.043a5.766,5.766,0,0,1-5.374-3.994,5.415,5.415,0,0,0,1.067.107,5.56,5.56,0,0,0,1.48-.2A5.8,5.8,0,0,1,12,75.32v-.07a6.883,6.883,0,0,0,2.666.713A5.793,5.793,0,0,1,12.95,68.3a16.294,16.294,0,0,0,11.84,6,5.553,5.553,0,0,1-.15-1.309,5.747,5.747,0,0,1,9.939-3.929,11.579,11.579,0,0,0,3.645-1.394A5.773,5.773,0,0,1,35.7,70.844a11.492,11.492,0,0,0,3.3-.9A11.625,11.625,0,0,1,36.134,72.914Z"/></g><path class="c" d="M24,51A24,24,0,1,0,48,75,24,24,0,0,0,24,51ZM36.134,69.914c.008.245.014.494.014.743C36.148,78.246,30.376,87,19.8,87A16.235,16.235,0,0,1,11,84.415a11.321,11.321,0,0,0,1.369.089A11.534,11.534,0,0,0,19.5,82.043a5.766,5.766,0,0,1-5.374-3.994,5.415,5.415,0,0,0,1.067.107,5.56,5.56,0,0,0,1.48-.2A5.8,5.8,0,0,1,12,72.32v-.07a6.883,6.883,0,0,0,2.666.713A5.793,5.793,0,0,1,12.95,65.3a16.294,16.294,0,0,0,11.84,6,5.553,5.553,0,0,1-.15-1.309,5.747,5.747,0,0,1,9.939-3.929,11.579,11.579,0,0,0,3.645-1.394A5.773,5.773,0,0,1,35.7,67.844a11.492,11.492,0,0,0,3.3-.9A11.625,11.625,0,0,1,36.134,69.914Z"/><path class="e" d="M47.949,25.5a23.994,23.994,0,0,1-47.9,0C.021,26,0,26.5,0,27a24,24,0,0,0,48,0C48,26.5,47.979,26,47.949,25.5Z"/></svg>